<?xml version="1.0" encoding="utf-8" standalone="no"?>
<!DOCTYPE svg PUBLIC "-//W3C//DTD SVG 1.1//EN"
  "http://www.w3.org/Graphics/SVG/1.1/DTD/svg11.dtd">
<!-- Created with matplotlib (https://matplotlib.org/) -->
<svg height="470.905pt" version="1.1" viewBox="0 0 486.264062 470.905" width="486.264062pt" xmlns="http://www.w3.org/2000/svg" xmlns:xlink="http://www.w3.org/1999/xlink">
 <defs>
  <style type="text/css">
*{stroke-linecap:butt;stroke-linejoin:round;}
  </style>
 </defs>
 <g id="figure_1">
  <g id="patch_1">
   <path d="M 0 470.905 
L 486.264062 470.905 
L 486.264062 0 
L 0 0 
z
" style="fill:none;"/>
  </g>
  <g id="axes_1">
   <g id="patch_2">
    <path d="M 32.664062 442.08 
L 479.064062 442.08 
L 479.064062 7.2 
L 32.664062 7.2 
z
" style="fill:#ffffff;"/>
   </g>
   <g id="patch_3">
    <path clip-path="url(#p7e6699d155)" d="M 134.118608 369.6 
L 107.064062 343.243636 
L 80.009517 343.243636 
L 52.954972 369.6 
L 80.009517 395.956364 
L 107.064062 395.956364 
z
" style="fill:#af5570;stroke:#af5570;stroke-linejoin:miter;"/>
   </g>
   <g id="patch_4">
    <path clip-path="url(#p7e6699d155)" d="M 134.118608 316.887273 
L 107.064062 290.530909 
L 80.009517 290.530909 
L 52.954972 316.887273 
L 80.009517 343.243636 
L 107.064062 343.243636 
z
" style="fill:#01acec;stroke:#01acec;stroke-linejoin:miter;"/>
   </g>
   <g id="patch_5">
    <path clip-path="url(#p7e6699d155)" d="M 134.118608 264.174545 
L 107.064062 237.818182 
L 80.009517 237.818182 
L 52.954972 264.174545 
L 80.009517 290.530909 
L 107.064062 290.530909 
z
" style="fill:#2fcd15;stroke:#2fcd15;stroke-linejoin:miter;"/>
   </g>
   <g id="patch_6">
    <path clip-path="url(#p7e6699d155)" d="M 134.118608 211.461818 
L 107.064062 185.105455 
L 80.009517 185.105455 
L 52.954972 211.461818 
L 80.009517 237.818182 
L 107.064062 237.818182 
z
" style="fill:#9ae4c9;stroke:#9ae4c9;stroke-linejoin:miter;"/>
   </g>
   <g id="patch_7">
    <path clip-path="url(#p7e6699d155)" d="M 134.118608 158.749091 
L 107.064062 132.392727 
L 80.009517 132.392727 
L 52.954972 158.749091 
L 80.009517 185.105455 
L 107.064062 185.105455 
z
" style="fill:#1b03ab;stroke:#1b03ab;stroke-linejoin:miter;"/>
   </g>
   <g id="patch_8">
    <path clip-path="url(#p7e6699d155)" d="M 134.118608 106.036364 
L 107.064062 79.68 
L 80.009517 79.68 
L 52.954972 106.036364 
L 80.009517 132.392727 
L 107.064062 132.392727 
z
" style="fill:#2be219;stroke:#2be219;stroke-linejoin:miter;"/>
   </g>
   <g id="patch_9">
    <path clip-path="url(#p7e6699d155)" d="M 134.118608 53.323636 
L 107.064062 26.967273 
L 80.009517 26.967273 
L 52.954972 53.323636 
L 80.009517 79.68 
L 107.064062 79.68 
z
" style="fill:#20aef0;stroke:#20aef0;stroke-linejoin:miter;"/>
   </g>
   <g id="patch_10">
    <path clip-path="url(#p7e6699d155)" d="M 188.227699 395.956364 
L 161.173153 369.6 
L 134.118608 369.6 
L 107.064062 395.956364 
L 134.118608 422.312727 
L 161.173153 422.312727 
z
" style="fill:#7c9fa1;stroke:#7c9fa1;stroke-linejoin:miter;"/>
   </g>
   <g id="patch_11">
    <path clip-path="url(#p7e6699d155)" d="M 188.227699 343.243636 
L 161.173153 316.887273 
L 134.118608 316.887273 
L 107.064062 343.243636 
L 134.118608 369.6 
L 161.173153 369.6 
z
" style="fill:#64ed86;stroke:#64ed86;stroke-linejoin:miter;"/>
   </g>
   <g id="patch_12">
    <path clip-path="url(#p7e6699d155)" d="M 188.227699 290.530909 
L 161.173153 264.174545 
L 134.118608 264.174545 
L 107.064062 290.530909 
L 134.118608 316.887273 
L 161.173153 316.887273 
z
" style="fill:#34fb5c;stroke:#34fb5c;stroke-linejoin:miter;"/>
   </g>
   <g id="patch_13">
    <path clip-path="url(#p7e6699d155)" d="M 188.227699 237.818182 
L 161.173153 211.461818 
L 134.118608 211.461818 
L 107.064062 237.818182 
L 134.118608 264.174545 
L 161.173153 264.174545 
z
" style="fill:#30656b;stroke:#30656b;stroke-linejoin:miter;"/>
   </g>
   <g id="patch_14">
    <path clip-path="url(#p7e6699d155)" d="M 188.227699 185.105455 
L 161.173153 158.749091 
L 134.118608 158.749091 
L 107.064062 185.105455 
L 134.118608 211.461818 
L 161.173153 211.461818 
z
" style="fill:#77ee7c;stroke:#77ee7c;stroke-linejoin:miter;"/>
   </g>
   <g id="patch_15">
    <path clip-path="url(#p7e6699d155)" d="M 188.227699 132.392727 
L 161.173153 106.036364 
L 134.118608 106.036364 
L 107.064062 132.392727 
L 134.118608 158.749091 
L 161.173153 158.749091 
z
" style="fill:#eca75f;stroke:#eca75f;stroke-linejoin:miter;"/>
   </g>
   <g id="patch_16">
    <path clip-path="url(#p7e6699d155)" d="M 188.227699 79.68 
L 161.173153 53.323636 
L 134.118608 53.323636 
L 107.064062 79.68 
L 134.118608 106.036364 
L 161.173153 106.036364 
z
" style="fill:#971e06;stroke:#971e06;stroke-linejoin:miter;"/>
   </g>
   <g id="patch_17">
    <path clip-path="url(#p7e6699d155)" d="M 242.33679 369.6 
L 215.282244 343.243636 
L 188.227699 343.243636 
L 161.173153 369.6 
L 188.227699 395.956364 
L 215.282244 395.956364 
z
" style="fill:#7b2ed6;stroke:#7b2ed6;stroke-linejoin:miter;"/>
   </g>
   <g id="patch_18">
    <path clip-path="url(#p7e6699d155)" d="M 242.33679 316.887273 
L 215.282244 290.530909 
L 188.227699 290.530909 
L 161.173153 316.887273 
L 188.227699 343.243636 
L 215.282244 343.243636 
z
" style="fill:#41d805;stroke:#41d805;stroke-linejoin:miter;"/>
   </g>
   <g id="patch_19">
    <path clip-path="url(#p7e6699d155)" d="M 242.33679 264.174545 
L 215.282244 237.818182 
L 188.227699 237.818182 
L 161.173153 264.174545 
L 188.227699 290.530909 
L 215.282244 290.530909 
z
" style="fill:#0c40fc;stroke:#0c40fc;stroke-linejoin:miter;"/>
   </g>
   <g id="patch_20">
    <path clip-path="url(#p7e6699d155)" d="M 242.33679 211.461818 
L 215.282244 185.105455 
L 188.227699 185.105455 
L 161.173153 211.461818 
L 188.227699 237.818182 
L 215.282244 237.818182 
z
" style="fill:#5821e0;stroke:#5821e0;stroke-linejoin:miter;"/>
   </g>
   <g id="patch_21">
    <path clip-path="url(#p7e6699d155)" d="M 242.33679 158.749091 
L 215.282244 132.392727 
L 188.227699 132.392727 
L 161.173153 158.749091 
L 188.227699 185.105455 
L 215.282244 185.105455 
z
" style="fill:#a01fd7;stroke:#a01fd7;stroke-linejoin:miter;"/>
   </g>
   <g id="patch_22">
    <path clip-path="url(#p7e6699d155)" d="M 242.33679 106.036364 
L 215.282244 79.68 
L 188.227699 79.68 
L 161.173153 106.036364 
L 188.227699 132.392727 
L 215.282244 132.392727 
z
" style="fill:#52e302;stroke:#52e302;stroke-linejoin:miter;"/>
   </g>
   <g id="patch_23">
    <path clip-path="url(#p7e6699d155)" d="M 242.33679 53.323636 
L 215.282244 26.967273 
L 188.227699 26.967273 
L 161.173153 53.323636 
L 188.227699 79.68 
L 215.282244 79.68 
z
" style="fill:#2d67ef;stroke:#2d67ef;stroke-linejoin:miter;"/>
   </g>
   <g id="patch_24">
    <path clip-path="url(#p7e6699d155)" d="M 296.445881 395.956364 
L 269.391335 369.6 
L 242.33679 369.6 
L 215.282244 395.956364 
L 242.33679 422.312727 
L 269.391335 422.312727 
z
" style="fill:#f5bd7c;stroke:#f5bd7c;stroke-linejoin:miter;"/>
   </g>
   <g id="patch_25">
    <path clip-path="url(#p7e6699d155)" d="M 296.445881 343.243636 
L 269.391335 316.887273 
L 242.33679 316.887273 
L 215.282244 343.243636 
L 242.33679 369.6 
L 269.391335 369.6 
z
" style="fill:#7c039a;stroke:#7c039a;stroke-linejoin:miter;"/>
   </g>
   <g id="patch_26">
    <path clip-path="url(#p7e6699d155)" d="M 296.445881 290.530909 
L 269.391335 264.174545 
L 242.33679 264.174545 
L 215.282244 290.530909 
L 242.33679 316.887273 
L 269.391335 316.887273 
z
" style="fill:#f9815d;stroke:#f9815d;stroke-linejoin:miter;"/>
   </g>
   <g id="patch_27">
    <path clip-path="url(#p7e6699d155)" d="M 296.445881 237.818182 
L 269.391335 211.461818 
L 242.33679 211.461818 
L 215.282244 237.818182 
L 242.33679 264.174545 
L 269.391335 264.174545 
z
" style="fill:#8073c9;stroke:#8073c9;stroke-linejoin:miter;"/>
   </g>
   <g id="patch_28">
    <path clip-path="url(#p7e6699d155)" d="M 296.445881 185.105455 
L 269.391335 158.749091 
L 242.33679 158.749091 
L 215.282244 185.105455 
L 242.33679 211.461818 
L 269.391335 211.461818 
z
" style="fill:#3bef0a;stroke:#3bef0a;stroke-linejoin:miter;"/>
   </g>
   <g id="patch_29">
    <path clip-path="url(#p7e6699d155)" d="M 296.445881 132.392727 
L 269.391335 106.036364 
L 242.33679 106.036364 
L 215.282244 132.392727 
L 242.33679 158.749091 
L 269.391335 158.749091 
z
" style="fill:#a261fd;stroke:#a261fd;stroke-linejoin:miter;"/>
   </g>
   <g id="patch_30">
    <path clip-path="url(#p7e6699d155)" d="M 296.445881 79.68 
L 269.391335 53.323636 
L 242.33679 53.323636 
L 215.282244 79.68 
L 242.33679 106.036364 
L 269.391335 106.036364 
z
" style="fill:#d1a01f;stroke:#d1a01f;stroke-linejoin:miter;"/>
   </g>
   <g id="patch_31">
    <path clip-path="url(#p7e6699d155)" d="M 350.554972 369.6 
L 323.500426 343.243636 
L 296.445881 343.243636 
L 269.391335 369.6 
L 296.445881 395.956364 
L 323.500426 395.956364 
z
" style="fill:#4f9fe0;stroke:#4f9fe0;stroke-linejoin:miter;"/>
   </g>
   <g id="patch_32">
    <path clip-path="url(#p7e6699d155)" d="M 350.554972 316.887273 
L 323.500426 290.530909 
L 296.445881 290.530909 
L 269.391335 316.887273 
L 296.445881 343.243636 
L 323.500426 343.243636 
z
" style="fill:#080d57;stroke:#080d57;stroke-linejoin:miter;"/>
   </g>
   <g id="patch_33">
    <path clip-path="url(#p7e6699d155)" d="M 350.554972 264.174545 
L 323.500426 237.818182 
L 296.445881 237.818182 
L 269.391335 264.174545 
L 296.445881 290.530909 
L 323.500426 290.530909 
z
" style="fill:#267833;stroke:#267833;stroke-linejoin:miter;"/>
   </g>
   <g id="patch_34">
    <path clip-path="url(#p7e6699d155)" d="M 350.554972 211.461818 
L 323.500426 185.105455 
L 296.445881 185.105455 
L 269.391335 211.461818 
L 296.445881 237.818182 
L 323.500426 237.818182 
z
" style="fill:#04cf60;stroke:#04cf60;stroke-linejoin:miter;"/>
   </g>
   <g id="patch_35">
    <path clip-path="url(#p7e6699d155)" d="M 350.554972 158.749091 
L 323.500426 132.392727 
L 296.445881 132.392727 
L 269.391335 158.749091 
L 296.445881 185.105455 
L 323.500426 185.105455 
z
" style="fill:#39e5a2;stroke:#39e5a2;stroke-linejoin:miter;"/>
   </g>
   <g id="patch_36">
    <path clip-path="url(#p7e6699d155)" d="M 350.554972 106.036364 
L 323.500426 79.68 
L 296.445881 79.68 
L 269.391335 106.036364 
L 296.445881 132.392727 
L 323.500426 132.392727 
z
" style="fill:#3571bc;stroke:#3571bc;stroke-linejoin:miter;"/>
   </g>
   <g id="patch_37">
    <path clip-path="url(#p7e6699d155)" d="M 350.554972 53.323636 
L 323.500426 26.967273 
L 296.445881 26.967273 
L 269.391335 53.323636 
L 296.445881 79.68 
L 323.500426 79.68 
z
" style="fill:#e31674;stroke:#e31674;stroke-linejoin:miter;"/>
   </g>
   <g id="patch_38">
    <path clip-path="url(#p7e6699d155)" d="M 404.664062 395.956364 
L 377.609517 369.6 
L 350.554972 369.6 
L 323.500426 395.956364 
L 350.554972 422.312727 
L 377.609517 422.312727 
z
" style="fill:#fc2984;stroke:#fc2984;stroke-linejoin:miter;"/>
   </g>
   <g id="patch_39">
    <path clip-path="url(#p7e6699d155)" d="M 404.664062 343.243636 
L 377.609517 316.887273 
L 350.554972 316.887273 
L 323.500426 343.243636 
L 350.554972 369.6 
L 377.609517 369.6 
z
" style="fill:#9f58cd;stroke:#9f58cd;stroke-linejoin:miter;"/>
   </g>
   <g id="patch_40">
    <path clip-path="url(#p7e6699d155)" d="M 404.664062 290.530909 
L 377.609517 264.174545 
L 350.554972 264.174545 
L 323.500426 290.530909 
L 350.554972 316.887273 
L 377.609517 316.887273 
z
" style="fill:#8dafa0;stroke:#8dafa0;stroke-linejoin:miter;"/>
   </g>
   <g id="patch_41">
    <path clip-path="url(#p7e6699d155)" d="M 404.664062 237.818182 
L 377.609517 211.461818 
L 350.554972 211.461818 
L 323.500426 237.818182 
L 350.554972 264.174545 
L 377.609517 264.174545 
z
" style="fill:#a23a86;stroke:#a23a86;stroke-linejoin:miter;"/>
   </g>
   <g id="patch_42">
    <path clip-path="url(#p7e6699d155)" d="M 404.664062 185.105455 
L 377.609517 158.749091 
L 350.554972 158.749091 
L 323.500426 185.105455 
L 350.554972 211.461818 
L 377.609517 211.461818 
z
" style="fill:#f1833c;stroke:#f1833c;stroke-linejoin:miter;"/>
   </g>
   <g id="patch_43">
    <path clip-path="url(#p7e6699d155)" d="M 404.664062 132.392727 
L 377.609517 106.036364 
L 350.554972 106.036364 
L 323.500426 132.392727 
L 350.554972 158.749091 
L 377.609517 158.749091 
z
" style="fill:#58cc3f;stroke:#58cc3f;stroke-linejoin:miter;"/>
   </g>
   <g id="patch_44">
    <path clip-path="url(#p7e6699d155)" d="M 404.664062 79.68 
L 377.609517 53.323636 
L 350.554972 53.323636 
L 323.500426 79.68 
L 350.554972 106.036364 
L 377.609517 106.036364 
z
" style="fill:#32a3d5;stroke:#32a3d5;stroke-linejoin:miter;"/>
   </g>
   <g id="patch_45">
    <path clip-path="url(#p7e6699d155)" d="M 458.773153 369.6 
L 431.718608 343.243636 
L 404.664062 343.243636 
L 377.609517 369.6 
L 404.664062 395.956364 
L 431.718608 395.956364 
z
" style="fill:#864279;stroke:#864279;stroke-linejoin:miter;"/>
   </g>
   <g id="patch_46">
    <path clip-path="url(#p7e6699d155)" d="M 458.773153 316.887273 
L 431.718608 290.530909 
L 404.664062 290.530909 
L 377.609517 316.887273 
L 404.664062 343.243636 
L 431.718608 343.243636 
z
" style="fill:#4cf898;stroke:#4cf898;stroke-linejoin:miter;"/>
   </g>
   <g id="patch_47">
    <path clip-path="url(#p7e6699d155)" d="M 458.773153 264.174545 
L 431.718608 237.818182 
L 404.664062 237.818182 
L 377.609517 264.174545 
L 404.664062 290.530909 
L 431.718608 290.530909 
z
" style="fill:#de378e;stroke:#de378e;stroke-linejoin:miter;"/>
   </g>
   <g id="patch_48">
    <path clip-path="url(#p7e6699d155)" d="M 458.773153 211.461818 
L 431.718608 185.105455 
L 404.664062 185.105455 
L 377.609517 211.461818 
L 404.664062 237.818182 
L 431.718608 237.818182 
z
" style="fill:#d558c7;stroke:#d558c7;stroke-linejoin:miter;"/>
   </g>
   <g id="patch_49">
    <path clip-path="url(#p7e6699d155)" d="M 458.773153 158.749091 
L 431.718608 132.392727 
L 404.664062 132.392727 
L 377.609517 158.749091 
L 404.664062 185.105455 
L 431.718608 185.105455 
z
" style="fill:#f93c02;stroke:#f93c02;stroke-linejoin:miter;"/>
   </g>
   <g id="patch_50">
    <path clip-path="url(#p7e6699d155)" d="M 458.773153 106.036364 
L 431.718608 79.68 
L 404.664062 79.68 
L 377.609517 106.036364 
L 404.664062 132.392727 
L 431.718608 132.392727 
z
" style="fill:#d01812;stroke:#d01812;stroke-linejoin:miter;"/>
   </g>
   <g id="patch_51">
    <path clip-path="url(#p7e6699d155)" d="M 458.773153 53.323636 
L 431.718608 26.967273 
L 404.664062 26.967273 
L 377.609517 53.323636 
L 404.664062 79.68 
L 431.718608 79.68 
z
" style="fill:#2c4589;stroke:#2c4589;stroke-linejoin:miter;"/>
   </g>
   <g id="matplotlib.axis_1">
    <g id="xtick_1">
     <g id="line2d_1">
      <defs>
       <path d="M 0 0 
L 0 3.5 
" id="mda840b0ea5" style="stroke:#000000;stroke-width:0.8;"/>
      </defs>
      <g>
       <use style="stroke:#000000;stroke-width:0.8;" x="66.482244" xlink:href="#mda840b0ea5" y="442.08"/>
      </g>
     </g>
     <g id="text_1">
      <!-- 0 -->
      <defs>
       <path d="M 30.765625 71.75 
C 15.59375 71.75 7.640625 58.71875 7.640625 35.328125 
C 7.640625 11.84375 15.59375 -1.171875 30.765625 -1.171875 
C 45.953125 -1.171875 53.890625 11.84375 53.890625 35.328125 
C 53.890625 58.71875 45.953125 71.75 30.765625 71.75 
z
M 30.765625 64.828125 
C 34.828125 64.828125 37.890625 63.390625 40.15625 60.25 
L 18.5625 16.875 
C 17.328125 21.4375 16.765625 27.484375 16.765625 35.328125 
C 16.765625 56.25 22.109375 64.828125 30.765625 64.828125 
z
M 44.828125 35.328125 
C 44.828125 14.40625 39.546875 5.796875 30.765625 5.796875 
C 26.828125 5.796875 23.75 7.171875 21.484375 10.3125 
L 42.96875 53.84375 
C 44.203125 49.28125 44.828125 43.234375 44.828125 35.328125 
z
" id="FiraCode-Regular-48"/>
      </defs>
      <g transform="translate(61.866229 460.4425)scale(0.15 -0.15)">
       <use xlink:href="#FiraCode-Regular-48"/>
      </g>
     </g>
    </g>
    <g id="xtick_2">
     <g id="line2d_2">
      <g>
       <use style="stroke:#000000;stroke-width:0.8;" x="120.591335" xlink:href="#mda840b0ea5" y="442.08"/>
      </g>
     </g>
     <g id="text_2">
      <!-- 1 -->
      <defs>
       <path d="M 53.078125 7.03125 
L 38.3125 7.03125 
L 38.3125 70.609375 
L 30.765625 70.609375 
L 9.75 57.59375 
L 13.484375 51.4375 
L 29.6875 61.28125 
L 29.6875 7.03125 
L 12.3125 7.03125 
L 12.3125 0 
L 53.078125 0 
z
" id="FiraCode-Regular-49"/>
      </defs>
      <g transform="translate(115.97532 460.4425)scale(0.15 -0.15)">
       <use xlink:href="#FiraCode-Regular-49"/>
      </g>
     </g>
    </g>
    <g id="xtick_3">
     <g id="line2d_3">
      <g>
       <use style="stroke:#000000;stroke-width:0.8;" x="174.700426" xlink:href="#mda840b0ea5" y="442.08"/>
      </g>
     </g>
     <g id="text_3">
      <!-- 2 -->
      <defs>
       <path d="M 27.640625 71.75 
C 18.109375 71.75 11.640625 68.46875 6.046875 61.640625 
L 12 57.03125 
C 16.46875 62.3125 20.25 64.5625 27.234375 64.5625 
C 35.125 64.5625 39.84375 59.6875 39.84375 51.75 
C 39.84375 40.25 34.109375 32.5625 7.484375 7.03125 
L 7.484375 0 
L 49.484375 0 
L 50.5625 7.328125 
L 17.28125 7.328125 
C 40.5625 28.5625 48.921875 39.078125 48.921875 52.046875 
C 48.921875 63.28125 40.96875 71.75 27.640625 71.75 
z
" id="FiraCode-Regular-50"/>
      </defs>
      <g transform="translate(170.084411 460.4425)scale(0.15 -0.15)">
       <use xlink:href="#FiraCode-Regular-50"/>
      </g>
     </g>
    </g>
    <g id="xtick_4">
     <g id="line2d_4">
      <g>
       <use style="stroke:#000000;stroke-width:0.8;" x="228.809517" xlink:href="#mda840b0ea5" y="442.08"/>
      </g>
     </g>
     <g id="text_4">
      <!-- 3 -->
      <defs>
       <path d="M 27.546875 71.75 
C 20.359375 71.75 13.484375 69.28125 7.484375 63.640625 
L 12.25 58.359375 
C 16.921875 62.71875 21.078125 64.875 27.234375 64.875 
C 34.609375 64.875 40.5625 60.671875 40.5625 52.875 
C 40.5625 44.46875 33.953125 40.5625 27.125 40.5625 
L 22.96875 40.5625 
L 21.890625 33.75 
L 27.84375 33.75 
C 36.203125 33.75 42.46875 30.46875 42.46875 20.359375 
C 42.46875 11.484375 36.609375 5.953125 26.765625 5.953125 
C 20.96875 5.953125 15.078125 8.25 11.078125 12.96875 
L 5.28125 8.25 
C 10.671875 1.6875 19.078125 -1.171875 26.96875 -1.171875 
C 41.59375 -1.171875 51.484375 8.109375 51.484375 20.359375 
C 51.484375 31.234375 43.6875 36.96875 35.4375 37.640625 
C 42.921875 39.03125 49.234375 45.53125 49.234375 54.109375 
C 49.234375 63.6875 40.875 71.75 27.546875 71.75 
z
" id="FiraCode-Regular-51"/>
      </defs>
      <g transform="translate(224.193501 460.4425)scale(0.15 -0.15)">
       <use xlink:href="#FiraCode-Regular-51"/>
      </g>
     </g>
    </g>
    <g id="xtick_5">
     <g id="line2d_5">
      <g>
       <use style="stroke:#000000;stroke-width:0.8;" x="282.918608" xlink:href="#mda840b0ea5" y="442.08"/>
      </g>
     </g>
     <g id="text_5">
      <!-- 4 -->
      <defs>
       <path d="M 45.078125 44.109375 
L 37.890625 44.109375 
L 36.765625 24.046875 
L 16.515625 24.046875 
L 35.28125 68.71875 
L 28.109375 71.75 
L 7.390625 23.4375 
L 7.390625 17.171875 
L 36.71875 17.171875 
L 36.765625 0 
L 45.078125 0 
L 45.078125 17.171875 
L 54.203125 17.171875 
L 54.203125 24.046875 
L 45.078125 24.046875 
z
" id="FiraCode-Regular-52"/>
      </defs>
      <g transform="translate(278.302592 460.4425)scale(0.15 -0.15)">
       <use xlink:href="#FiraCode-Regular-52"/>
      </g>
     </g>
    </g>
    <g id="xtick_6">
     <g id="line2d_6">
      <g>
       <use style="stroke:#000000;stroke-width:0.8;" x="337.027699" xlink:href="#mda840b0ea5" y="442.08"/>
      </g>
     </g>
     <g id="text_6">
      <!-- 5 -->
      <defs>
       <path d="M 49.953125 70.609375 
L 12.5625 70.609375 
L 12.5625 35.328125 
L 19.484375 35.328125 
C 23.59375 36.875 26.3125 37.6875 30.515625 37.6875 
C 37.59375 37.6875 43.234375 34 43.234375 22.609375 
C 43.234375 11.640625 37.75 5.953125 28.46875 5.953125 
C 22.359375 5.953125 17.484375 8.046875 13.234375 12.46875 
L 7.890625 7.328125 
C 13.390625 2 19.84375 -1.171875 28.359375 -1.171875 
C 42.921875 -1.171875 52.25 8.25 52.25 22.359375 
C 52.25 36.46875 44.515625 44.515625 32.96875 44.515625 
C 28.71875 44.515625 25.078125 43.796875 20.765625 41.484375 
L 20.765625 63.75 
L 48.671875 63.75 
z
" id="FiraCode-Regular-53"/>
      </defs>
      <g transform="translate(332.411683 460.4425)scale(0.15 -0.15)">
       <use xlink:href="#FiraCode-Regular-53"/>
      </g>
     </g>
    </g>
    <g id="xtick_7">
     <g id="line2d_7">
      <g>
       <use style="stroke:#000000;stroke-width:0.8;" x="391.13679" xlink:href="#mda840b0ea5" y="442.08"/>
      </g>
     </g>
     <g id="text_7">
      <!-- 6 -->
      <defs>
       <path d="M 34.40625 71.75 
C 17.890625 71.75 8.15625 56.765625 8.15625 33.390625 
C 8.15625 12.359375 14.40625 -1.171875 31.59375 -1.171875 
C 43.84375 -1.171875 53.796875 8.15625 53.796875 23.75 
C 53.796875 38.828125 44.671875 46 33.796875 46 
C 26.875 46 21.28125 43.171875 16.765625 36.46875 
C 17.125 53.6875 23.390625 64.765625 34.25 64.765625 
C 38.109375 64.765625 41.796875 63.75 44.96875 61.796875 
L 48.359375 67.640625 
C 44.359375 70.3125 39.84375 71.75 34.40625 71.75 
z
M 32.46875 38.921875 
C 39.953125 38.921875 44.96875 35.125 44.96875 23.53125 
C 44.96875 12.5625 40.46875 5.796875 31.546875 5.796875 
C 21.546875 5.796875 17.234375 12.96875 16.875 28.921875 
C 20.359375 34.875 25.6875 38.921875 32.46875 38.921875 
z
" id="FiraCode-Regular-54"/>
      </defs>
      <g transform="translate(386.520774 460.4425)scale(0.15 -0.15)">
       <use xlink:href="#FiraCode-Regular-54"/>
      </g>
     </g>
    </g>
    <g id="xtick_8">
     <g id="line2d_8">
      <g>
       <use style="stroke:#000000;stroke-width:0.8;" x="445.245881" xlink:href="#mda840b0ea5" y="442.08"/>
      </g>
     </g>
     <g id="text_8">
      <!-- 7 -->
      <defs>
       <path d="M 23.640625 -0.96875 
L 51.796875 64 
L 51.796875 70.609375 
L 10 70.609375 
L 10 63.4375 
L 43.125 63.4375 
L 15.59375 1.484375 
z
" id="FiraCode-Regular-55"/>
      </defs>
      <g transform="translate(440.629865 460.4425)scale(0.15 -0.15)">
       <use xlink:href="#FiraCode-Regular-55"/>
      </g>
     </g>
    </g>
   </g>
   <g id="matplotlib.axis_2">
    <g id="ytick_1">
     <g id="line2d_9">
      <defs>
       <path d="M 0 0 
L -3.5 0 
" id="m3078637f2e" style="stroke:#000000;stroke-width:0.8;"/>
      </defs>
      <g>
       <use style="stroke:#000000;stroke-width:0.8;" x="32.664062" xlink:href="#m3078637f2e" y="395.956364"/>
      </g>
     </g>
     <g id="text_9">
      <!-- 0 -->
      <g transform="translate(16.432031 401.637614)scale(0.15 -0.15)">
       <use xlink:href="#FiraCode-Regular-48"/>
      </g>
     </g>
    </g>
    <g id="ytick_2">
     <g id="line2d_10">
      <g>
       <use style="stroke:#000000;stroke-width:0.8;" x="32.664062" xlink:href="#m3078637f2e" y="343.243636"/>
      </g>
     </g>
     <g id="text_10">
      <!-- 2 -->
      <g transform="translate(16.432031 348.924886)scale(0.15 -0.15)">
       <use xlink:href="#FiraCode-Regular-50"/>
      </g>
     </g>
    </g>
    <g id="ytick_3">
     <g id="line2d_11">
      <g>
       <use style="stroke:#000000;stroke-width:0.8;" x="32.664062" xlink:href="#m3078637f2e" y="290.530909"/>
      </g>
     </g>
     <g id="text_11">
      <!-- 4 -->
      <g transform="translate(16.432031 296.212159)scale(0.15 -0.15)">
       <use xlink:href="#FiraCode-Regular-52"/>
      </g>
     </g>
    </g>
    <g id="ytick_4">
     <g id="line2d_12">
      <g>
       <use style="stroke:#000000;stroke-width:0.8;" x="32.664062" xlink:href="#m3078637f2e" y="237.818182"/>
      </g>
     </g>
     <g id="text_12">
      <!-- 6 -->
      <g transform="translate(16.432031 243.499432)scale(0.15 -0.15)">
       <use xlink:href="#FiraCode-Regular-54"/>
      </g>
     </g>
    </g>
    <g id="ytick_5">
     <g id="line2d_13">
      <g>
       <use style="stroke:#000000;stroke-width:0.8;" x="32.664062" xlink:href="#m3078637f2e" y="185.105455"/>
      </g>
     </g>
     <g id="text_13">
      <!-- 8 -->
      <defs>
       <path d="M 51.953125 53.796875 
C 51.953125 66.3125 41.03125 71.75 30.765625 71.75 
C 21.484375 71.75 9.59375 66.25 9.59375 53.328125 
C 9.59375 45.4375 13.390625 40.765625 20.875 37.171875 
C 12.3125 33.234375 6.71875 27.4375 6.71875 18.765625 
C 6.71875 7.53125 15.4375 -1.171875 30.5625 -1.171875 
C 45.484375 -1.171875 54.828125 7.390625 54.828125 18.921875 
C 54.828125 27.640625 48.875 34.109375 39.6875 37.890625 
C 47.546875 42.203125 51.953125 46.921875 51.953125 53.796875 
z
M 18.109375 53.234375 
C 18.109375 60.71875 22.765625 65.078125 30.765625 65.078125 
C 38.828125 65.078125 43.4375 60.5625 43.4375 53.484375 
C 43.4375 47.03125 40.15625 43.75 33.59375 40.046875 
C 24 43.125 18.109375 45.078125 18.109375 53.234375 
z
M 45.75 18.828125 
C 45.75 11.390625 40.359375 5.796875 30.515625 5.796875 
C 20.765625 5.796875 15.796875 10.71875 15.796875 18.71875 
C 15.796875 27.640625 20.96875 32.046875 26.828125 34.71875 
C 37.953125 30.875 45.75 28.3125 45.75 18.828125 
z
" id="FiraCode-Regular-56"/>
      </defs>
      <g transform="translate(16.432031 190.786705)scale(0.15 -0.15)">
       <use xlink:href="#FiraCode-Regular-56"/>
      </g>
     </g>
    </g>
    <g id="ytick_6">
     <g id="line2d_14">
      <g>
       <use style="stroke:#000000;stroke-width:0.8;" x="32.664062" xlink:href="#m3078637f2e" y="132.392727"/>
      </g>
     </g>
     <g id="text_14">
      <!-- 10 -->
      <g transform="translate(7.2 138.073977)scale(0.15 -0.15)">
       <use xlink:href="#FiraCode-Regular-49"/>
       <use x="61.538452" xlink:href="#FiraCode-Regular-48"/>
      </g>
     </g>
    </g>
    <g id="ytick_7">
     <g id="line2d_15">
      <g>
       <use style="stroke:#000000;stroke-width:0.8;" x="32.664062" xlink:href="#m3078637f2e" y="79.68"/>
      </g>
     </g>
     <g id="text_15">
      <!-- 12 -->
      <g transform="translate(7.2 85.36125)scale(0.15 -0.15)">
       <use xlink:href="#FiraCode-Regular-49"/>
       <use x="61.538452" xlink:href="#FiraCode-Regular-50"/>
      </g>
     </g>
    </g>
    <g id="ytick_8">
     <g id="line2d_16">
      <g>
       <use style="stroke:#000000;stroke-width:0.8;" x="32.664062" xlink:href="#m3078637f2e" y="26.967273"/>
      </g>
     </g>
     <g id="text_16">
      <!-- 14 -->
      <g transform="translate(7.2 32.648523)scale(0.15 -0.15)">
       <use xlink:href="#FiraCode-Regular-49"/>
       <use x="61.538452" xlink:href="#FiraCode-Regular-52"/>
      </g>
     </g>
    </g>
   </g>
   <g id="patch_52">
    <path d="M 32.664062 442.08 
L 32.664062 7.2 
" style="fill:none;stroke:#000000;stroke-linecap:square;stroke-linejoin:miter;stroke-width:0.8;"/>
   </g>
   <g id="patch_53">
    <path d="M 479.064062 442.08 
L 479.064062 7.2 
" style="fill:none;stroke:#000000;stroke-linecap:square;stroke-linejoin:miter;stroke-width:0.8;"/>
   </g>
   <g id="patch_54">
    <path d="M 32.664062 442.08 
L 479.064062 442.08 
" style="fill:none;stroke:#000000;stroke-linecap:square;stroke-linejoin:miter;stroke-width:0.8;"/>
   </g>
   <g id="patch_55">
    <path d="M 32.664062 7.2 
L 479.064062 7.2 
" style="fill:none;stroke:#000000;stroke-linecap:square;stroke-linejoin:miter;stroke-width:0.8;"/>
   </g>
   <g id="text_17">
    <!-- 0,0 -->
    <defs>
     <path d="M 30.765625 16.875 
C 26.109375 16.875 22.5625 13.171875 22.5625 8.671875 
C 22.5625 5.890625 23.84375 3.328125 25.890625 1.84375 
L 20.96875 -18.40625 
L 28.765625 -18.40625 
L 37.078125 0.609375 
C 38.5625 3.84375 39.078125 6.203125 39.078125 8.671875 
C 39.078125 13.171875 35.546875 16.875 30.765625 16.875 
z
" id="FiraCode-Regular-44"/>
    </defs>
    <g style="fill:#e5ff80;" transform="translate(79.688743 373.65)scale(0.15 -0.15)">
     <use xlink:href="#FiraCode-Regular-48"/>
     <use x="61.538452" xlink:href="#FiraCode-Regular-44"/>
     <use x="123.076904" xlink:href="#FiraCode-Regular-48"/>
    </g>
   </g>
   <g id="text_18">
    <!-- 0,1 -->
    <g transform="translate(79.688743 320.937273)scale(0.15 -0.15)">
     <use xlink:href="#FiraCode-Regular-48"/>
     <use x="61.538452" xlink:href="#FiraCode-Regular-44"/>
     <use x="123.076904" xlink:href="#FiraCode-Regular-49"/>
    </g>
   </g>
   <g id="text_19">
    <!-- 0,2 -->
    <g transform="translate(79.688743 268.224545)scale(0.15 -0.15)">
     <use xlink:href="#FiraCode-Regular-48"/>
     <use x="61.538452" xlink:href="#FiraCode-Regular-44"/>
     <use x="123.076904" xlink:href="#FiraCode-Regular-50"/>
    </g>
   </g>
   <g id="text_20">
    <!-- 0,3 -->
    <g transform="translate(79.688743 215.511818)scale(0.15 -0.15)">
     <use xlink:href="#FiraCode-Regular-48"/>
     <use x="61.538452" xlink:href="#FiraCode-Regular-44"/>
     <use x="123.076904" xlink:href="#FiraCode-Regular-51"/>
    </g>
   </g>
   <g id="text_21">
    <!-- 0,4 -->
    <g style="fill:#e5ff80;" transform="translate(79.688743 162.799091)scale(0.15 -0.15)">
     <use xlink:href="#FiraCode-Regular-48"/>
     <use x="61.538452" xlink:href="#FiraCode-Regular-44"/>
     <use x="123.076904" xlink:href="#FiraCode-Regular-52"/>
    </g>
   </g>
   <g id="text_22">
    <!-- 0,5 -->
    <g transform="translate(79.688743 110.086364)scale(0.15 -0.15)">
     <use xlink:href="#FiraCode-Regular-48"/>
     <use x="61.538452" xlink:href="#FiraCode-Regular-44"/>
     <use x="123.076904" xlink:href="#FiraCode-Regular-53"/>
    </g>
   </g>
   <g id="text_23">
    <!-- 0,6 -->
    <g transform="translate(79.688743 57.373636)scale(0.15 -0.15)">
     <use xlink:href="#FiraCode-Regular-48"/>
     <use x="61.538452" xlink:href="#FiraCode-Regular-44"/>
     <use x="123.076904" xlink:href="#FiraCode-Regular-54"/>
    </g>
   </g>
   <g id="text_24">
    <!-- 1,0 -->
    <g style="fill:#e5ff80;" transform="translate(133.797834 400.006364)scale(0.15 -0.15)">
     <use xlink:href="#FiraCode-Regular-49"/>
     <use x="61.538452" xlink:href="#FiraCode-Regular-44"/>
     <use x="123.076904" xlink:href="#FiraCode-Regular-48"/>
    </g>
   </g>
   <g id="text_25">
    <!-- 1,1 -->
    <g transform="translate(133.797834 347.293636)scale(0.15 -0.15)">
     <use xlink:href="#FiraCode-Regular-49"/>
     <use x="61.538452" xlink:href="#FiraCode-Regular-44"/>
     <use x="123.076904" xlink:href="#FiraCode-Regular-49"/>
    </g>
   </g>
   <g id="text_26">
    <!-- 1,2 -->
    <g transform="translate(133.797834 294.580909)scale(0.15 -0.15)">
     <use xlink:href="#FiraCode-Regular-49"/>
     <use x="61.538452" xlink:href="#FiraCode-Regular-44"/>
     <use x="123.076904" xlink:href="#FiraCode-Regular-50"/>
    </g>
   </g>
   <g id="text_27">
    <!-- 1,3 -->
    <g style="fill:#e5ff80;" transform="translate(133.797834 241.868182)scale(0.15 -0.15)">
     <use xlink:href="#FiraCode-Regular-49"/>
     <use x="61.538452" xlink:href="#FiraCode-Regular-44"/>
     <use x="123.076904" xlink:href="#FiraCode-Regular-51"/>
    </g>
   </g>
   <g id="text_28">
    <!-- 1,4 -->
    <g transform="translate(133.797834 189.155455)scale(0.15 -0.15)">
     <use xlink:href="#FiraCode-Regular-49"/>
     <use x="61.538452" xlink:href="#FiraCode-Regular-44"/>
     <use x="123.076904" xlink:href="#FiraCode-Regular-52"/>
    </g>
   </g>
   <g id="text_29">
    <!-- 1,5 -->
    <g transform="translate(133.797834 136.442727)scale(0.15 -0.15)">
     <use xlink:href="#FiraCode-Regular-49"/>
     <use x="61.538452" xlink:href="#FiraCode-Regular-44"/>
     <use x="123.076904" xlink:href="#FiraCode-Regular-53"/>
    </g>
   </g>
   <g id="text_30">
    <!-- 1,6 -->
    <g style="fill:#e5ff80;" transform="translate(133.797834 83.73)scale(0.15 -0.15)">
     <use xlink:href="#FiraCode-Regular-49"/>
     <use x="61.538452" xlink:href="#FiraCode-Regular-44"/>
     <use x="123.076904" xlink:href="#FiraCode-Regular-54"/>
    </g>
   </g>
   <g id="text_31">
    <!-- 2,1 -->
    <g transform="translate(187.906925 373.65)scale(0.15 -0.15)">
     <use xlink:href="#FiraCode-Regular-50"/>
     <use x="61.538452" xlink:href="#FiraCode-Regular-44"/>
     <use x="123.076904" xlink:href="#FiraCode-Regular-49"/>
    </g>
   </g>
   <g id="text_32">
    <!-- 2,2 -->
    <g transform="translate(187.906925 320.937273)scale(0.15 -0.15)">
     <use xlink:href="#FiraCode-Regular-50"/>
     <use x="61.538452" xlink:href="#FiraCode-Regular-44"/>
     <use x="123.076904" xlink:href="#FiraCode-Regular-50"/>
    </g>
   </g>
   <g id="text_33">
    <!-- 2,3 -->
    <g transform="translate(187.906925 268.224545)scale(0.15 -0.15)">
     <use xlink:href="#FiraCode-Regular-50"/>
     <use x="61.538452" xlink:href="#FiraCode-Regular-44"/>
     <use x="123.076904" xlink:href="#FiraCode-Regular-51"/>
    </g>
   </g>
   <g id="text_34">
    <!-- 2,4 -->
    <g transform="translate(187.906925 215.511818)scale(0.15 -0.15)">
     <use xlink:href="#FiraCode-Regular-50"/>
     <use x="61.538452" xlink:href="#FiraCode-Regular-44"/>
     <use x="123.076904" xlink:href="#FiraCode-Regular-52"/>
    </g>
   </g>
   <g id="text_35">
    <!-- 2,5 -->
    <g transform="translate(187.906925 162.799091)scale(0.15 -0.15)">
     <use xlink:href="#FiraCode-Regular-50"/>
     <use x="61.538452" xlink:href="#FiraCode-Regular-44"/>
     <use x="123.076904" xlink:href="#FiraCode-Regular-53"/>
    </g>
   </g>
   <g id="text_36">
    <!-- 2,6 -->
    <g transform="translate(187.906925 110.086364)scale(0.15 -0.15)">
     <use xlink:href="#FiraCode-Regular-50"/>
     <use x="61.538452" xlink:href="#FiraCode-Regular-44"/>
     <use x="123.076904" xlink:href="#FiraCode-Regular-54"/>
    </g>
   </g>
   <g id="text_37">
    <!-- 2,7 -->
    <g transform="translate(187.906925 57.373636)scale(0.15 -0.15)">
     <use xlink:href="#FiraCode-Regular-50"/>
     <use x="61.538452" xlink:href="#FiraCode-Regular-44"/>
     <use x="123.076904" xlink:href="#FiraCode-Regular-55"/>
    </g>
   </g>
   <g id="text_38">
    <!-- 3,1 -->
    <g transform="translate(242.016016 400.006364)scale(0.15 -0.15)">
     <use xlink:href="#FiraCode-Regular-51"/>
     <use x="61.538452" xlink:href="#FiraCode-Regular-44"/>
     <use x="123.076904" xlink:href="#FiraCode-Regular-49"/>
    </g>
   </g>
   <g id="text_39">
    <!-- 3,2 -->
    <g style="fill:#e5ff80;" transform="translate(242.016016 347.293636)scale(0.15 -0.15)">
     <use xlink:href="#FiraCode-Regular-51"/>
     <use x="61.538452" xlink:href="#FiraCode-Regular-44"/>
     <use x="123.076904" xlink:href="#FiraCode-Regular-50"/>
    </g>
   </g>
   <g id="text_40">
    <!-- 3,3 -->
    <g transform="translate(242.016016 294.580909)scale(0.15 -0.15)">
     <use xlink:href="#FiraCode-Regular-51"/>
     <use x="61.538452" xlink:href="#FiraCode-Regular-44"/>
     <use x="123.076904" xlink:href="#FiraCode-Regular-51"/>
    </g>
   </g>
   <g id="text_41">
    <!-- 3,4 -->
    <g transform="translate(242.016016 241.868182)scale(0.15 -0.15)">
     <use xlink:href="#FiraCode-Regular-51"/>
     <use x="61.538452" xlink:href="#FiraCode-Regular-44"/>
     <use x="123.076904" xlink:href="#FiraCode-Regular-52"/>
    </g>
   </g>
   <g id="text_42">
    <!-- 3,5 -->
    <g transform="translate(242.016016 189.155455)scale(0.15 -0.15)">
     <use xlink:href="#FiraCode-Regular-51"/>
     <use x="61.538452" xlink:href="#FiraCode-Regular-44"/>
     <use x="123.076904" xlink:href="#FiraCode-Regular-53"/>
    </g>
   </g>
   <g id="text_43">
    <!-- 3,6 -->
    <g transform="translate(242.016016 136.442727)scale(0.15 -0.15)">
     <use xlink:href="#FiraCode-Regular-51"/>
     <use x="61.538452" xlink:href="#FiraCode-Regular-44"/>
     <use x="123.076904" xlink:href="#FiraCode-Regular-54"/>
    </g>
   </g>
   <g id="text_44">
    <!-- 3,7 -->
    <g transform="translate(242.016016 83.73)scale(0.15 -0.15)">
     <use xlink:href="#FiraCode-Regular-51"/>
     <use x="61.538452" xlink:href="#FiraCode-Regular-44"/>
     <use x="123.076904" xlink:href="#FiraCode-Regular-55"/>
    </g>
   </g>
   <g id="text_45">
    <!-- 4,2 -->
    <g transform="translate(296.125107 373.65)scale(0.15 -0.15)">
     <use xlink:href="#FiraCode-Regular-52"/>
     <use x="61.538452" xlink:href="#FiraCode-Regular-44"/>
     <use x="123.076904" xlink:href="#FiraCode-Regular-50"/>
    </g>
   </g>
   <g id="text_46">
    <!-- 4,3 -->
    <g style="fill:#e5ff80;" transform="translate(296.125107 320.937273)scale(0.15 -0.15)">
     <use xlink:href="#FiraCode-Regular-52"/>
     <use x="61.538452" xlink:href="#FiraCode-Regular-44"/>
     <use x="123.076904" xlink:href="#FiraCode-Regular-51"/>
    </g>
   </g>
   <g id="text_47">
    <!-- 4,4 -->
    <g style="fill:#e5ff80;" transform="translate(296.125107 268.224545)scale(0.15 -0.15)">
     <use xlink:href="#FiraCode-Regular-52"/>
     <use x="61.538452" xlink:href="#FiraCode-Regular-44"/>
     <use x="123.076904" xlink:href="#FiraCode-Regular-52"/>
    </g>
   </g>
   <g id="text_48">
    <!-- 4,5 -->
    <g transform="translate(296.125107 215.511818)scale(0.15 -0.15)">
     <use xlink:href="#FiraCode-Regular-52"/>
     <use x="61.538452" xlink:href="#FiraCode-Regular-44"/>
     <use x="123.076904" xlink:href="#FiraCode-Regular-53"/>
    </g>
   </g>
   <g id="text_49">
    <!-- 4,6 -->
    <g transform="translate(296.125107 162.799091)scale(0.15 -0.15)">
     <use xlink:href="#FiraCode-Regular-52"/>
     <use x="61.538452" xlink:href="#FiraCode-Regular-44"/>
     <use x="123.076904" xlink:href="#FiraCode-Regular-54"/>
    </g>
   </g>
   <g id="text_50">
    <!-- 4,7 -->
    <g transform="translate(296.125107 110.086364)scale(0.15 -0.15)">
     <use xlink:href="#FiraCode-Regular-52"/>
     <use x="61.538452" xlink:href="#FiraCode-Regular-44"/>
     <use x="123.076904" xlink:href="#FiraCode-Regular-55"/>
    </g>
   </g>
   <g id="text_51">
    <!-- 4,8 -->
    <g transform="translate(296.125107 57.373636)scale(0.15 -0.15)">
     <use xlink:href="#FiraCode-Regular-52"/>
     <use x="61.538452" xlink:href="#FiraCode-Regular-44"/>
     <use x="123.076904" xlink:href="#FiraCode-Regular-56"/>
    </g>
   </g>
   <g id="text_52">
    <!-- 5,2 -->
    <g transform="translate(350.234197 400.006364)scale(0.15 -0.15)">
     <use xlink:href="#FiraCode-Regular-53"/>
     <use x="61.538452" xlink:href="#FiraCode-Regular-44"/>
     <use x="123.076904" xlink:href="#FiraCode-Regular-50"/>
    </g>
   </g>
   <g id="text_53">
    <!-- 5,3 -->
    <g transform="translate(350.234197 347.293636)scale(0.15 -0.15)">
     <use xlink:href="#FiraCode-Regular-53"/>
     <use x="61.538452" xlink:href="#FiraCode-Regular-44"/>
     <use x="123.076904" xlink:href="#FiraCode-Regular-51"/>
    </g>
   </g>
   <g id="text_54">
    <!-- 5,4 -->
    <g style="fill:#e5ff80;" transform="translate(350.234197 294.580909)scale(0.15 -0.15)">
     <use xlink:href="#FiraCode-Regular-53"/>
     <use x="61.538452" xlink:href="#FiraCode-Regular-44"/>
     <use x="123.076904" xlink:href="#FiraCode-Regular-52"/>
    </g>
   </g>
   <g id="text_55">
    <!-- 5,5 -->
    <g style="fill:#e5ff80;" transform="translate(350.234197 241.868182)scale(0.15 -0.15)">
     <use xlink:href="#FiraCode-Regular-53"/>
     <use x="61.538452" xlink:href="#FiraCode-Regular-44"/>
     <use x="123.076904" xlink:href="#FiraCode-Regular-53"/>
    </g>
   </g>
   <g id="text_56">
    <!-- 5,6 -->
    <g transform="translate(350.234197 189.155455)scale(0.15 -0.15)">
     <use xlink:href="#FiraCode-Regular-53"/>
     <use x="61.538452" xlink:href="#FiraCode-Regular-44"/>
     <use x="123.076904" xlink:href="#FiraCode-Regular-54"/>
    </g>
   </g>
   <g id="text_57">
    <!-- 5,7 -->
    <g transform="translate(350.234197 136.442727)scale(0.15 -0.15)">
     <use xlink:href="#FiraCode-Regular-53"/>
     <use x="61.538452" xlink:href="#FiraCode-Regular-44"/>
     <use x="123.076904" xlink:href="#FiraCode-Regular-55"/>
    </g>
   </g>
   <g id="text_58">
    <!-- 5,8 -->
    <g transform="translate(350.234197 83.73)scale(0.15 -0.15)">
     <use xlink:href="#FiraCode-Regular-53"/>
     <use x="61.538452" xlink:href="#FiraCode-Regular-44"/>
     <use x="123.076904" xlink:href="#FiraCode-Regular-56"/>
    </g>
   </g>
   <g id="text_59">
    <!-- 6,3 -->
    <g style="fill:#e5ff80;" transform="translate(404.343288 373.65)scale(0.15 -0.15)">
     <use xlink:href="#FiraCode-Regular-54"/>
     <use x="61.538452" xlink:href="#FiraCode-Regular-44"/>
     <use x="123.076904" xlink:href="#FiraCode-Regular-51"/>
    </g>
   </g>
   <g id="text_60">
    <!-- 6,4 -->
    <g transform="translate(404.343288 320.937273)scale(0.15 -0.15)">
     <use xlink:href="#FiraCode-Regular-54"/>
     <use x="61.538452" xlink:href="#FiraCode-Regular-44"/>
     <use x="123.076904" xlink:href="#FiraCode-Regular-52"/>
    </g>
   </g>
   <g id="text_61">
    <!-- 6,5 -->
    <g transform="translate(404.343288 268.224545)scale(0.15 -0.15)">
     <use xlink:href="#FiraCode-Regular-54"/>
     <use x="61.538452" xlink:href="#FiraCode-Regular-44"/>
     <use x="123.076904" xlink:href="#FiraCode-Regular-53"/>
    </g>
   </g>
   <g id="text_62">
    <!-- 6,6 -->
    <g transform="translate(404.343288 215.511818)scale(0.15 -0.15)">
     <use xlink:href="#FiraCode-Regular-54"/>
     <use x="61.538452" xlink:href="#FiraCode-Regular-44"/>
     <use x="123.076904" xlink:href="#FiraCode-Regular-54"/>
    </g>
   </g>
   <g id="text_63">
    <!-- 6,7 -->
    <g transform="translate(404.343288 162.799091)scale(0.15 -0.15)">
     <use xlink:href="#FiraCode-Regular-54"/>
     <use x="61.538452" xlink:href="#FiraCode-Regular-44"/>
     <use x="123.076904" xlink:href="#FiraCode-Regular-55"/>
    </g>
   </g>
   <g id="text_64">
    <!-- 6,8 -->
    <g transform="translate(404.343288 110.086364)scale(0.15 -0.15)">
     <use xlink:href="#FiraCode-Regular-54"/>
     <use x="61.538452" xlink:href="#FiraCode-Regular-44"/>
     <use x="123.076904" xlink:href="#FiraCode-Regular-56"/>
    </g>
   </g>
   <g id="text_65">
    <!-- 6,9 -->
    <defs>
     <path d="M 29.6875 71.640625 
C 16.96875 71.640625 6.828125 63.59375 6.828125 48.46875 
C 6.828125 34.3125 15.28125 25.890625 27.03125 25.890625 
C 34.109375 25.890625 39.484375 29.328125 43.546875 34.3125 
C 42.5625 17.53125 32.609375 9.84375 13.078125 4.40625 
L 15.078125 -2.15625 
C 41.484375 5.125 52.71875 14.203125 52.71875 42.765625 
C 52.71875 60.515625 45.078125 71.640625 29.6875 71.640625 
z
M 15.75 48.15625 
C 15.75 58.96875 20.515625 64.671875 29.6875 64.671875 
C 39.078125 64.671875 43.546875 58.5625 43.75 41.953125 
C 39.546875 36.25 34.96875 32.765625 28.609375 32.765625 
C 20.5625 32.765625 15.75 37.390625 15.75 48.15625 
z
" id="FiraCode-Regular-57"/>
    </defs>
    <g style="fill:#e5ff80;" transform="translate(404.343288 57.373636)scale(0.15 -0.15)">
     <use xlink:href="#FiraCode-Regular-54"/>
     <use x="61.538452" xlink:href="#FiraCode-Regular-44"/>
     <use x="123.076904" xlink:href="#FiraCode-Regular-57"/>
    </g>
   </g>
  </g>
 </g>
 <defs>
  <clipPath id="p7e6699d155">
   <rect height="434.88" width="446.4" x="32.664062" y="7.2"/>
  </clipPath>
 </defs>
</svg>
