<?xml version="1.0" encoding="utf-8" standalone="no"?>
<!DOCTYPE svg PUBLIC "-//W3C//DTD SVG 1.1//EN"
  "http://www.w3.org/Graphics/SVG/1.1/DTD/svg11.dtd">
<!-- Created with matplotlib (https://matplotlib.org/) -->
<svg height="490.554062pt" version="1.1" viewBox="0 0 485.860937 490.554062" width="485.860937pt" xmlns="http://www.w3.org/2000/svg" xmlns:xlink="http://www.w3.org/1999/xlink">
 <defs>
  <style type="text/css">
*{stroke-linecap:butt;stroke-linejoin:round;}
  </style>
 </defs>
 <g id="figure_1">
  <g id="patch_1">
   <path d="M 0 490.554062 
L 485.860937 490.554062 
L 485.860937 0 
L 0 0 
z
" style="fill:none;"/>
  </g>
  <g id="axes_1">
   <g id="patch_2">
    <path d="M 32.260937 461.757187 
L 478.660937 461.757187 
L 478.660937 26.877187 
L 32.260937 26.877187 
z
" style="fill:#ffffff;"/>
   </g>
   <g id="patch_3">
    <path clip-path="url(#p8e0e1ba0ef)" d="M 133.715483 389.277187 
L 106.660938 362.920824 
L 79.606392 362.920824 
L 52.551847 389.277187 
L 79.606392 415.633551 
L 106.660938 415.633551 
z
" style="fill:#af5570;stroke:#af5570;stroke-linejoin:miter;"/>
   </g>
   <g id="patch_4">
    <path clip-path="url(#p8e0e1ba0ef)" d="M 133.715483 336.56446 
L 106.660938 310.208097 
L 79.606392 310.208097 
L 52.551847 336.56446 
L 79.606392 362.920824 
L 106.660938 362.920824 
z
" style="fill:#01acec;stroke:#01acec;stroke-linejoin:miter;"/>
   </g>
   <g id="patch_5">
    <path clip-path="url(#p8e0e1ba0ef)" d="M 133.715483 283.851733 
L 106.660938 257.495369 
L 79.606392 257.495369 
L 52.551847 283.851733 
L 79.606392 310.208097 
L 106.660938 310.208097 
z
" style="fill:#2fcd15;stroke:#2fcd15;stroke-linejoin:miter;"/>
   </g>
   <g id="patch_6">
    <path clip-path="url(#p8e0e1ba0ef)" d="M 133.715483 231.139006 
L 106.660938 204.782642 
L 79.606392 204.782642 
L 52.551847 231.139006 
L 79.606392 257.495369 
L 106.660938 257.495369 
z
" style="fill:#9ae4c9;stroke:#9ae4c9;stroke-linejoin:miter;"/>
   </g>
   <g id="patch_7">
    <path clip-path="url(#p8e0e1ba0ef)" d="M 133.715483 178.426278 
L 106.660938 152.069915 
L 79.606392 152.069915 
L 52.551847 178.426278 
L 79.606392 204.782642 
L 106.660938 204.782642 
z
" style="fill:#1b03ab;stroke:#1b03ab;stroke-linejoin:miter;"/>
   </g>
   <g id="patch_8">
    <path clip-path="url(#p8e0e1ba0ef)" d="M 133.715483 125.713551 
L 106.660938 99.357187 
L 79.606392 99.357187 
L 52.551847 125.713551 
L 79.606392 152.069915 
L 106.660938 152.069915 
z
" style="fill:#2be219;stroke:#2be219;stroke-linejoin:miter;"/>
   </g>
   <g id="patch_9">
    <path clip-path="url(#p8e0e1ba0ef)" d="M 133.715483 73.000824 
L 106.660938 46.64446 
L 79.606392 46.64446 
L 52.551847 73.000824 
L 79.606392 99.357187 
L 106.660938 99.357187 
z
" style="fill:#20aef0;stroke:#20aef0;stroke-linejoin:miter;"/>
   </g>
   <g id="patch_10">
    <path clip-path="url(#p8e0e1ba0ef)" d="M 187.824574 415.633551 
L 160.770028 389.277187 
L 133.715483 389.277187 
L 106.660938 415.633551 
L 133.715483 441.989915 
L 160.770028 441.989915 
z
" style="fill:#7c9fa1;stroke:#7c9fa1;stroke-linejoin:miter;"/>
   </g>
   <g id="patch_11">
    <path clip-path="url(#p8e0e1ba0ef)" d="M 187.824574 362.920824 
L 160.770028 336.56446 
L 133.715483 336.56446 
L 106.660938 362.920824 
L 133.715483 389.277187 
L 160.770028 389.277187 
z
" style="fill:#64ed86;stroke:#64ed86;stroke-linejoin:miter;"/>
   </g>
   <g id="patch_12">
    <path clip-path="url(#p8e0e1ba0ef)" d="M 187.824574 310.208097 
L 160.770028 283.851733 
L 133.715483 283.851733 
L 106.660938 310.208097 
L 133.715483 336.56446 
L 160.770028 336.56446 
z
" style="fill:#34fb5c;stroke:#34fb5c;stroke-linejoin:miter;"/>
   </g>
   <g id="patch_13">
    <path clip-path="url(#p8e0e1ba0ef)" d="M 187.824574 257.495369 
L 160.770028 231.139006 
L 133.715483 231.139006 
L 106.660938 257.495369 
L 133.715483 283.851733 
L 160.770028 283.851733 
z
" style="fill:#30656b;stroke:#30656b;stroke-linejoin:miter;"/>
   </g>
   <g id="patch_14">
    <path clip-path="url(#p8e0e1ba0ef)" d="M 187.824574 204.782642 
L 160.770028 178.426278 
L 133.715483 178.426278 
L 106.660938 204.782642 
L 133.715483 231.139006 
L 160.770028 231.139006 
z
" style="fill:#77ee7c;stroke:#77ee7c;stroke-linejoin:miter;"/>
   </g>
   <g id="patch_15">
    <path clip-path="url(#p8e0e1ba0ef)" d="M 187.824574 152.069915 
L 160.770028 125.713551 
L 133.715483 125.713551 
L 106.660938 152.069915 
L 133.715483 178.426278 
L 160.770028 178.426278 
z
" style="fill:#eca75f;stroke:#eca75f;stroke-linejoin:miter;"/>
   </g>
   <g id="patch_16">
    <path clip-path="url(#p8e0e1ba0ef)" d="M 187.824574 99.357187 
L 160.770028 73.000824 
L 133.715483 73.000824 
L 106.660938 99.357187 
L 133.715483 125.713551 
L 160.770028 125.713551 
z
" style="fill:#971e06;stroke:#971e06;stroke-linejoin:miter;"/>
   </g>
   <g id="patch_17">
    <path clip-path="url(#p8e0e1ba0ef)" d="M 241.933665 389.277187 
L 214.879119 362.920824 
L 187.824574 362.920824 
L 160.770028 389.277187 
L 187.824574 415.633551 
L 214.879119 415.633551 
z
" style="fill:#7b2ed6;stroke:#7b2ed6;stroke-linejoin:miter;"/>
   </g>
   <g id="patch_18">
    <path clip-path="url(#p8e0e1ba0ef)" d="M 241.933665 336.56446 
L 214.879119 310.208097 
L 187.824574 310.208097 
L 160.770028 336.56446 
L 187.824574 362.920824 
L 214.879119 362.920824 
z
" style="fill:#41d805;stroke:#41d805;stroke-linejoin:miter;"/>
   </g>
   <g id="patch_19">
    <path clip-path="url(#p8e0e1ba0ef)" d="M 241.933665 283.851733 
L 214.879119 257.495369 
L 187.824574 257.495369 
L 160.770028 283.851733 
L 187.824574 310.208097 
L 214.879119 310.208097 
z
" style="fill:#0c40fc;stroke:#0c40fc;stroke-linejoin:miter;"/>
   </g>
   <g id="patch_20">
    <path clip-path="url(#p8e0e1ba0ef)" d="M 241.933665 231.139006 
L 214.879119 204.782642 
L 187.824574 204.782642 
L 160.770028 231.139006 
L 187.824574 257.495369 
L 214.879119 257.495369 
z
" style="fill:#5821e0;stroke:#5821e0;stroke-linejoin:miter;"/>
   </g>
   <g id="patch_21">
    <path clip-path="url(#p8e0e1ba0ef)" d="M 241.933665 178.426278 
L 214.879119 152.069915 
L 187.824574 152.069915 
L 160.770028 178.426278 
L 187.824574 204.782642 
L 214.879119 204.782642 
z
" style="fill:#a01fd7;stroke:#a01fd7;stroke-linejoin:miter;"/>
   </g>
   <g id="patch_22">
    <path clip-path="url(#p8e0e1ba0ef)" d="M 241.933665 125.713551 
L 214.879119 99.357187 
L 187.824574 99.357187 
L 160.770028 125.713551 
L 187.824574 152.069915 
L 214.879119 152.069915 
z
" style="fill:#52e302;stroke:#52e302;stroke-linejoin:miter;"/>
   </g>
   <g id="patch_23">
    <path clip-path="url(#p8e0e1ba0ef)" d="M 241.933665 73.000824 
L 214.879119 46.64446 
L 187.824574 46.64446 
L 160.770028 73.000824 
L 187.824574 99.357187 
L 214.879119 99.357187 
z
" style="fill:#2d67ef;stroke:#2d67ef;stroke-linejoin:miter;"/>
   </g>
   <g id="patch_24">
    <path clip-path="url(#p8e0e1ba0ef)" d="M 296.042756 415.633551 
L 268.98821 389.277187 
L 241.933665 389.277187 
L 214.879119 415.633551 
L 241.933665 441.989915 
L 268.98821 441.989915 
z
" style="fill:#f5bd7c;stroke:#f5bd7c;stroke-linejoin:miter;"/>
   </g>
   <g id="patch_25">
    <path clip-path="url(#p8e0e1ba0ef)" d="M 296.042756 362.920824 
L 268.98821 336.56446 
L 241.933665 336.56446 
L 214.879119 362.920824 
L 241.933665 389.277187 
L 268.98821 389.277187 
z
" style="fill:#7c039a;stroke:#7c039a;stroke-linejoin:miter;"/>
   </g>
   <g id="patch_26">
    <path clip-path="url(#p8e0e1ba0ef)" d="M 296.042756 310.208097 
L 268.98821 283.851733 
L 241.933665 283.851733 
L 214.879119 310.208097 
L 241.933665 336.56446 
L 268.98821 336.56446 
z
" style="fill:#f9815d;stroke:#f9815d;stroke-linejoin:miter;"/>
   </g>
   <g id="patch_27">
    <path clip-path="url(#p8e0e1ba0ef)" d="M 296.042756 257.495369 
L 268.98821 231.139006 
L 241.933665 231.139006 
L 214.879119 257.495369 
L 241.933665 283.851733 
L 268.98821 283.851733 
z
" style="fill:#8073c9;stroke:#8073c9;stroke-linejoin:miter;"/>
   </g>
   <g id="patch_28">
    <path clip-path="url(#p8e0e1ba0ef)" d="M 296.042756 204.782642 
L 268.98821 178.426278 
L 241.933665 178.426278 
L 214.879119 204.782642 
L 241.933665 231.139006 
L 268.98821 231.139006 
z
" style="fill:#3bef0a;stroke:#3bef0a;stroke-linejoin:miter;"/>
   </g>
   <g id="patch_29">
    <path clip-path="url(#p8e0e1ba0ef)" d="M 296.042756 152.069915 
L 268.98821 125.713551 
L 241.933665 125.713551 
L 214.879119 152.069915 
L 241.933665 178.426278 
L 268.98821 178.426278 
z
" style="fill:#a261fd;stroke:#a261fd;stroke-linejoin:miter;"/>
   </g>
   <g id="patch_30">
    <path clip-path="url(#p8e0e1ba0ef)" d="M 296.042756 99.357187 
L 268.98821 73.000824 
L 241.933665 73.000824 
L 214.879119 99.357187 
L 241.933665 125.713551 
L 268.98821 125.713551 
z
" style="fill:#d1a01f;stroke:#d1a01f;stroke-linejoin:miter;"/>
   </g>
   <g id="patch_31">
    <path clip-path="url(#p8e0e1ba0ef)" d="M 350.151847 389.277187 
L 323.097301 362.920824 
L 296.042756 362.920824 
L 268.98821 389.277187 
L 296.042756 415.633551 
L 323.097301 415.633551 
z
" style="fill:#4f9fe0;stroke:#4f9fe0;stroke-linejoin:miter;"/>
   </g>
   <g id="patch_32">
    <path clip-path="url(#p8e0e1ba0ef)" d="M 350.151847 336.56446 
L 323.097301 310.208097 
L 296.042756 310.208097 
L 268.98821 336.56446 
L 296.042756 362.920824 
L 323.097301 362.920824 
z
" style="fill:#080d57;stroke:#080d57;stroke-linejoin:miter;"/>
   </g>
   <g id="patch_33">
    <path clip-path="url(#p8e0e1ba0ef)" d="M 350.151847 283.851733 
L 323.097301 257.495369 
L 296.042756 257.495369 
L 268.98821 283.851733 
L 296.042756 310.208097 
L 323.097301 310.208097 
z
" style="fill:#267833;stroke:#267833;stroke-linejoin:miter;"/>
   </g>
   <g id="patch_34">
    <path clip-path="url(#p8e0e1ba0ef)" d="M 350.151847 231.139006 
L 323.097301 204.782642 
L 296.042756 204.782642 
L 268.98821 231.139006 
L 296.042756 257.495369 
L 323.097301 257.495369 
z
" style="fill:#04cf60;stroke:#04cf60;stroke-linejoin:miter;"/>
   </g>
   <g id="patch_35">
    <path clip-path="url(#p8e0e1ba0ef)" d="M 350.151847 178.426278 
L 323.097301 152.069915 
L 296.042756 152.069915 
L 268.98821 178.426278 
L 296.042756 204.782642 
L 323.097301 204.782642 
z
" style="fill:#39e5a2;stroke:#39e5a2;stroke-linejoin:miter;"/>
   </g>
   <g id="patch_36">
    <path clip-path="url(#p8e0e1ba0ef)" d="M 350.151847 125.713551 
L 323.097301 99.357187 
L 296.042756 99.357187 
L 268.98821 125.713551 
L 296.042756 152.069915 
L 323.097301 152.069915 
z
" style="fill:#3571bc;stroke:#3571bc;stroke-linejoin:miter;"/>
   </g>
   <g id="patch_37">
    <path clip-path="url(#p8e0e1ba0ef)" d="M 350.151847 73.000824 
L 323.097301 46.64446 
L 296.042756 46.64446 
L 268.98821 73.000824 
L 296.042756 99.357187 
L 323.097301 99.357187 
z
" style="fill:#e31674;stroke:#e31674;stroke-linejoin:miter;"/>
   </g>
   <g id="patch_38">
    <path clip-path="url(#p8e0e1ba0ef)" d="M 404.260938 415.633551 
L 377.206392 389.277187 
L 350.151847 389.277187 
L 323.097301 415.633551 
L 350.151847 441.989915 
L 377.206392 441.989915 
z
" style="fill:#fc2984;stroke:#fc2984;stroke-linejoin:miter;"/>
   </g>
   <g id="patch_39">
    <path clip-path="url(#p8e0e1ba0ef)" d="M 404.260938 362.920824 
L 377.206392 336.56446 
L 350.151847 336.56446 
L 323.097301 362.920824 
L 350.151847 389.277187 
L 377.206392 389.277187 
z
" style="fill:#9f58cd;stroke:#9f58cd;stroke-linejoin:miter;"/>
   </g>
   <g id="patch_40">
    <path clip-path="url(#p8e0e1ba0ef)" d="M 404.260938 310.208097 
L 377.206392 283.851733 
L 350.151847 283.851733 
L 323.097301 310.208097 
L 350.151847 336.56446 
L 377.206392 336.56446 
z
" style="fill:#8dafa0;stroke:#8dafa0;stroke-linejoin:miter;"/>
   </g>
   <g id="patch_41">
    <path clip-path="url(#p8e0e1ba0ef)" d="M 404.260938 257.495369 
L 377.206392 231.139006 
L 350.151847 231.139006 
L 323.097301 257.495369 
L 350.151847 283.851733 
L 377.206392 283.851733 
z
" style="fill:#a23a86;stroke:#a23a86;stroke-linejoin:miter;"/>
   </g>
   <g id="patch_42">
    <path clip-path="url(#p8e0e1ba0ef)" d="M 404.260938 204.782642 
L 377.206392 178.426278 
L 350.151847 178.426278 
L 323.097301 204.782642 
L 350.151847 231.139006 
L 377.206392 231.139006 
z
" style="fill:#f1833c;stroke:#f1833c;stroke-linejoin:miter;"/>
   </g>
   <g id="patch_43">
    <path clip-path="url(#p8e0e1ba0ef)" d="M 404.260938 152.069915 
L 377.206392 125.713551 
L 350.151847 125.713551 
L 323.097301 152.069915 
L 350.151847 178.426278 
L 377.206392 178.426278 
z
" style="fill:#58cc3f;stroke:#58cc3f;stroke-linejoin:miter;"/>
   </g>
   <g id="patch_44">
    <path clip-path="url(#p8e0e1ba0ef)" d="M 404.260938 99.357187 
L 377.206392 73.000824 
L 350.151847 73.000824 
L 323.097301 99.357187 
L 350.151847 125.713551 
L 377.206392 125.713551 
z
" style="fill:#32a3d5;stroke:#32a3d5;stroke-linejoin:miter;"/>
   </g>
   <g id="patch_45">
    <path clip-path="url(#p8e0e1ba0ef)" d="M 458.370028 389.277187 
L 431.315483 362.920824 
L 404.260938 362.920824 
L 377.206392 389.277187 
L 404.260938 415.633551 
L 431.315483 415.633551 
z
" style="fill:#864279;stroke:#864279;stroke-linejoin:miter;"/>
   </g>
   <g id="patch_46">
    <path clip-path="url(#p8e0e1ba0ef)" d="M 458.370028 336.56446 
L 431.315483 310.208097 
L 404.260938 310.208097 
L 377.206392 336.56446 
L 404.260938 362.920824 
L 431.315483 362.920824 
z
" style="fill:#4cf898;stroke:#4cf898;stroke-linejoin:miter;"/>
   </g>
   <g id="patch_47">
    <path clip-path="url(#p8e0e1ba0ef)" d="M 458.370028 283.851733 
L 431.315483 257.495369 
L 404.260938 257.495369 
L 377.206392 283.851733 
L 404.260938 310.208097 
L 431.315483 310.208097 
z
" style="fill:#de378e;stroke:#de378e;stroke-linejoin:miter;"/>
   </g>
   <g id="patch_48">
    <path clip-path="url(#p8e0e1ba0ef)" d="M 458.370028 231.139006 
L 431.315483 204.782642 
L 404.260938 204.782642 
L 377.206392 231.139006 
L 404.260938 257.495369 
L 431.315483 257.495369 
z
" style="fill:#d558c7;stroke:#d558c7;stroke-linejoin:miter;"/>
   </g>
   <g id="patch_49">
    <path clip-path="url(#p8e0e1ba0ef)" d="M 458.370028 178.426278 
L 431.315483 152.069915 
L 404.260938 152.069915 
L 377.206392 178.426278 
L 404.260938 204.782642 
L 431.315483 204.782642 
z
" style="fill:#f93c02;stroke:#f93c02;stroke-linejoin:miter;"/>
   </g>
   <g id="patch_50">
    <path clip-path="url(#p8e0e1ba0ef)" d="M 458.370028 125.713551 
L 431.315483 99.357187 
L 404.260938 99.357187 
L 377.206392 125.713551 
L 404.260938 152.069915 
L 431.315483 152.069915 
z
" style="fill:#d01812;stroke:#d01812;stroke-linejoin:miter;"/>
   </g>
   <g id="patch_51">
    <path clip-path="url(#p8e0e1ba0ef)" d="M 458.370028 73.000824 
L 431.315483 46.64446 
L 404.260938 46.64446 
L 377.206392 73.000824 
L 404.260938 99.357187 
L 431.315483 99.357187 
z
" style="fill:#2c4589;stroke:#2c4589;stroke-linejoin:miter;"/>
   </g>
   <g id="matplotlib.axis_1">
    <g id="xtick_1">
     <g id="line2d_1">
      <defs>
       <path d="M 0 0 
L 0 3.5 
" id="md765db5ae1" style="stroke:#000000;stroke-width:0.8;"/>
      </defs>
      <g>
       <use style="stroke:#000000;stroke-width:0.8;" x="66.079119" xlink:href="#md765db5ae1" y="461.757187"/>
      </g>
     </g>
     <g id="text_1">
      <!-- 0 -->
      <defs>
       <path d="M 23.578125 36.625 
Q 23.578125 39.3125 25.453125 41.265625 
Q 27.34375 43.21875 29.984375 43.21875 
Q 32.71875 43.21875 34.671875 41.265625 
Q 36.625 39.3125 36.625 36.625 
Q 36.625 33.890625 34.6875 31.984375 
Q 32.765625 30.078125 29.984375 30.078125 
Q 27.25 30.078125 25.40625 31.9375 
Q 23.578125 33.796875 23.578125 36.625 
z
M 30.078125 66.40625 
Q 23.1875 66.40625 19.796875 58.984375 
Q 16.40625 51.5625 16.40625 36.375 
Q 16.40625 21.234375 19.796875 13.8125 
Q 23.1875 6.390625 30.078125 6.390625 
Q 37.015625 6.390625 40.40625 13.8125 
Q 43.796875 21.234375 43.796875 36.375 
Q 43.796875 51.5625 40.40625 58.984375 
Q 37.015625 66.40625 30.078125 66.40625 
z
M 30.078125 74.21875 
Q 41.75 74.21875 47.734375 64.640625 
Q 53.71875 55.078125 53.71875 36.375 
Q 53.71875 17.71875 47.734375 8.140625 
Q 41.75 -1.421875 30.078125 -1.421875 
Q 18.40625 -1.421875 12.453125 8.140625 
Q 6.5 17.71875 6.5 36.375 
Q 6.5 55.078125 12.453125 64.640625 
Q 18.40625 74.21875 30.078125 74.21875 
z
" id="DejaVuSansMono-48"/>
      </defs>
      <g transform="translate(61.563885 480.234531)scale(0.15 -0.15)">
       <use xlink:href="#DejaVuSansMono-48"/>
      </g>
     </g>
    </g>
    <g id="xtick_2">
     <g id="line2d_2">
      <g>
       <use style="stroke:#000000;stroke-width:0.8;" x="120.18821" xlink:href="#md765db5ae1" y="461.757187"/>
      </g>
     </g>
     <g id="text_2">
      <!-- 1 -->
      <defs>
       <path d="M 13.1875 8.296875 
L 28.515625 8.296875 
L 28.515625 64.015625 
L 12.015625 60.296875 
L 12.015625 69.28125 
L 28.421875 72.90625 
L 38.28125 72.90625 
L 38.28125 8.296875 
L 53.421875 8.296875 
L 53.421875 0 
L 13.1875 0 
z
" id="DejaVuSansMono-49"/>
      </defs>
      <g transform="translate(115.672976 480.234531)scale(0.15 -0.15)">
       <use xlink:href="#DejaVuSansMono-49"/>
      </g>
     </g>
    </g>
    <g id="xtick_3">
     <g id="line2d_3">
      <g>
       <use style="stroke:#000000;stroke-width:0.8;" x="174.297301" xlink:href="#md765db5ae1" y="461.757187"/>
      </g>
     </g>
     <g id="text_3">
      <!-- 2 -->
      <defs>
       <path d="M 18.21875 8.296875 
L 51.703125 8.296875 
L 51.703125 0 
L 7.421875 0 
L 7.421875 8.296875 
Q 16.546875 17.921875 23.375 25.296875 
Q 30.21875 32.671875 32.8125 35.6875 
Q 37.703125 41.65625 39.40625 45.34375 
Q 41.109375 49.03125 41.109375 52.875 
Q 41.109375 58.984375 37.515625 62.453125 
Q 33.9375 65.921875 27.6875 65.921875 
Q 23.25 65.921875 18.359375 64.3125 
Q 13.484375 62.703125 8.015625 59.421875 
L 8.015625 69.390625 
Q 13.03125 71.78125 17.890625 73 
Q 22.75 74.21875 27.484375 74.21875 
Q 38.1875 74.21875 44.703125 68.53125 
Q 51.21875 62.84375 51.21875 53.609375 
Q 51.21875 48.921875 49.046875 44.234375 
Q 46.875 39.546875 42 33.890625 
Q 39.265625 30.71875 34.0625 25.09375 
Q 28.859375 19.484375 18.21875 8.296875 
z
" id="DejaVuSansMono-50"/>
      </defs>
      <g transform="translate(169.782067 480.234531)scale(0.15 -0.15)">
       <use xlink:href="#DejaVuSansMono-50"/>
      </g>
     </g>
    </g>
    <g id="xtick_4">
     <g id="line2d_4">
      <g>
       <use style="stroke:#000000;stroke-width:0.8;" x="228.406392" xlink:href="#md765db5ae1" y="461.757187"/>
      </g>
     </g>
     <g id="text_4">
      <!-- 3 -->
      <defs>
       <path d="M 37.890625 39.015625 
Q 45.0625 37.109375 48.875 32.25 
Q 52.6875 27.390625 52.6875 20.125 
Q 52.6875 10.0625 45.921875 4.3125 
Q 39.15625 -1.421875 27.203125 -1.421875 
Q 22.171875 -1.421875 16.9375 -0.484375 
Q 11.71875 0.4375 6.6875 2.203125 
L 6.6875 12.015625 
Q 11.671875 9.421875 16.5 8.15625 
Q 21.34375 6.890625 26.125 6.890625 
Q 34.234375 6.890625 38.578125 10.546875 
Q 42.921875 14.203125 42.921875 21.09375 
Q 42.921875 27.4375 38.578125 31.171875 
Q 34.234375 34.90625 26.8125 34.90625 
L 19.28125 34.90625 
L 19.28125 43.015625 
L 26.8125 43.015625 
Q 33.59375 43.015625 37.40625 45.984375 
Q 41.21875 48.96875 41.21875 54.296875 
Q 41.21875 59.90625 37.671875 62.90625 
Q 34.125 65.921875 27.59375 65.921875 
Q 23.25 65.921875 18.609375 64.9375 
Q 13.96875 63.96875 8.890625 62.015625 
L 8.890625 71.09375 
Q 14.796875 72.65625 19.40625 73.4375 
Q 24.03125 74.21875 27.59375 74.21875 
Q 38.234375 74.21875 44.609375 68.875 
Q 50.984375 63.53125 50.984375 54.6875 
Q 50.984375 48.6875 47.625 44.671875 
Q 44.28125 40.671875 37.890625 39.015625 
z
" id="DejaVuSansMono-51"/>
      </defs>
      <g transform="translate(223.891158 480.234531)scale(0.15 -0.15)">
       <use xlink:href="#DejaVuSansMono-51"/>
      </g>
     </g>
    </g>
    <g id="xtick_5">
     <g id="line2d_5">
      <g>
       <use style="stroke:#000000;stroke-width:0.8;" x="282.515483" xlink:href="#md765db5ae1" y="461.757187"/>
      </g>
     </g>
     <g id="text_5">
      <!-- 4 -->
      <defs>
       <path d="M 35.890625 63.921875 
L 12.890625 25.390625 
L 35.890625 25.390625 
z
M 34.28125 72.90625 
L 45.703125 72.90625 
L 45.703125 25.390625 
L 55.421875 25.390625 
L 55.421875 17.390625 
L 45.703125 17.390625 
L 45.703125 0 
L 35.890625 0 
L 35.890625 17.390625 
L 4.984375 17.390625 
L 4.984375 26.703125 
z
" id="DejaVuSansMono-52"/>
      </defs>
      <g transform="translate(278.000249 480.234531)scale(0.15 -0.15)">
       <use xlink:href="#DejaVuSansMono-52"/>
      </g>
     </g>
    </g>
    <g id="xtick_6">
     <g id="line2d_6">
      <g>
       <use style="stroke:#000000;stroke-width:0.8;" x="336.624574" xlink:href="#md765db5ae1" y="461.757187"/>
      </g>
     </g>
     <g id="text_6">
      <!-- 5 -->
      <defs>
       <path d="M 10.109375 72.90625 
L 47.015625 72.90625 
L 47.015625 64.59375 
L 19.09375 64.59375 
L 19.09375 46.6875 
Q 21.1875 47.46875 23.3125 47.828125 
Q 25.4375 48.1875 27.59375 48.1875 
Q 38.921875 48.1875 45.5625 41.5 
Q 52.203125 34.8125 52.203125 23.390625 
Q 52.203125 11.859375 45.234375 5.21875 
Q 38.28125 -1.421875 26.21875 -1.421875 
Q 20.40625 -1.421875 15.59375 -0.640625 
Q 10.796875 0.140625 6.984375 1.703125 
L 6.984375 11.71875 
Q 11.46875 9.28125 16.015625 8.078125 
Q 20.5625 6.890625 25.296875 6.890625 
Q 33.453125 6.890625 37.859375 11.1875 
Q 42.28125 15.484375 42.28125 23.390625 
Q 42.28125 31.203125 37.71875 35.546875 
Q 33.15625 39.890625 25 39.890625 
Q 21.046875 39.890625 17.28125 38.984375 
Q 13.53125 38.09375 10.109375 36.28125 
z
" id="DejaVuSansMono-53"/>
      </defs>
      <g transform="translate(332.109339 480.234531)scale(0.15 -0.15)">
       <use xlink:href="#DejaVuSansMono-53"/>
      </g>
     </g>
    </g>
    <g id="xtick_7">
     <g id="line2d_7">
      <g>
       <use style="stroke:#000000;stroke-width:0.8;" x="390.733665" xlink:href="#md765db5ae1" y="461.757187"/>
      </g>
     </g>
     <g id="text_7">
      <!-- 6 -->
      <defs>
       <path d="M 48.390625 71.296875 
L 48.390625 62.203125 
Q 45.3125 64.015625 41.84375 64.96875 
Q 38.375 65.921875 34.625 65.921875 
Q 25.25 65.921875 20.40625 58.859375 
Q 15.578125 51.8125 15.578125 38.09375 
Q 17.921875 42.96875 22.0625 45.578125 
Q 26.21875 48.1875 31.59375 48.1875 
Q 42.140625 48.1875 47.921875 41.71875 
Q 53.71875 35.25 53.71875 23.390625 
Q 53.71875 11.578125 47.75 5.078125 
Q 41.796875 -1.421875 31 -1.421875 
Q 18.3125 -1.421875 12.40625 7.6875 
Q 6.5 16.796875 6.5 36.375 
Q 6.5 54.828125 13.59375 64.515625 
Q 20.703125 74.21875 34.1875 74.21875 
Q 37.796875 74.21875 41.40625 73.453125 
Q 45.015625 72.703125 48.390625 71.296875 
z
M 30.8125 40.484375 
Q 24.515625 40.484375 20.890625 35.9375 
Q 17.28125 31.390625 17.28125 23.390625 
Q 17.28125 15.375 20.890625 10.828125 
Q 24.515625 6.296875 30.8125 6.296875 
Q 37.359375 6.296875 40.671875 10.609375 
Q 44 14.9375 44 23.390625 
Q 44 31.890625 40.671875 36.1875 
Q 37.359375 40.484375 30.8125 40.484375 
z
" id="DejaVuSansMono-54"/>
      </defs>
      <g transform="translate(386.21843 480.234531)scale(0.15 -0.15)">
       <use xlink:href="#DejaVuSansMono-54"/>
      </g>
     </g>
    </g>
    <g id="xtick_8">
     <g id="line2d_8">
      <g>
       <use style="stroke:#000000;stroke-width:0.8;" x="444.842756" xlink:href="#md765db5ae1" y="461.757187"/>
      </g>
     </g>
     <g id="text_8">
      <!-- 7 -->
      <defs>
       <path d="M 6.78125 72.90625 
L 52.6875 72.90625 
L 52.6875 68.703125 
L 26.609375 0 
L 16.3125 0 
L 41.703125 64.59375 
L 6.78125 64.59375 
z
" id="DejaVuSansMono-55"/>
      </defs>
      <g transform="translate(440.327521 480.234531)scale(0.15 -0.15)">
       <use xlink:href="#DejaVuSansMono-55"/>
      </g>
     </g>
    </g>
   </g>
   <g id="matplotlib.axis_2">
    <g id="ytick_1">
     <g id="line2d_9">
      <defs>
       <path d="M 0 0 
L -3.5 0 
" id="mf35cbf63ed" style="stroke:#000000;stroke-width:0.8;"/>
      </defs>
      <g>
       <use style="stroke:#000000;stroke-width:0.8;" x="32.260937" xlink:href="#mf35cbf63ed" y="415.633551"/>
      </g>
     </g>
     <g id="text_9">
      <!-- 0 -->
      <g transform="translate(16.230469 421.372223)scale(0.15 -0.15)">
       <use xlink:href="#DejaVuSansMono-48"/>
      </g>
     </g>
    </g>
    <g id="ytick_2">
     <g id="line2d_10">
      <g>
       <use style="stroke:#000000;stroke-width:0.8;" x="32.260937" xlink:href="#mf35cbf63ed" y="362.920824"/>
      </g>
     </g>
     <g id="text_10">
      <!-- 2 -->
      <g transform="translate(16.230469 368.659496)scale(0.15 -0.15)">
       <use xlink:href="#DejaVuSansMono-50"/>
      </g>
     </g>
    </g>
    <g id="ytick_3">
     <g id="line2d_11">
      <g>
       <use style="stroke:#000000;stroke-width:0.8;" x="32.260937" xlink:href="#mf35cbf63ed" y="310.208097"/>
      </g>
     </g>
     <g id="text_11">
      <!-- 4 -->
      <g transform="translate(16.230469 315.946768)scale(0.15 -0.15)">
       <use xlink:href="#DejaVuSansMono-52"/>
      </g>
     </g>
    </g>
    <g id="ytick_4">
     <g id="line2d_12">
      <g>
       <use style="stroke:#000000;stroke-width:0.8;" x="32.260937" xlink:href="#mf35cbf63ed" y="257.495369"/>
      </g>
     </g>
     <g id="text_12">
      <!-- 6 -->
      <g transform="translate(16.230469 263.234041)scale(0.15 -0.15)">
       <use xlink:href="#DejaVuSansMono-54"/>
      </g>
     </g>
    </g>
    <g id="ytick_5">
     <g id="line2d_13">
      <g>
       <use style="stroke:#000000;stroke-width:0.8;" x="32.260937" xlink:href="#mf35cbf63ed" y="204.782642"/>
      </g>
     </g>
     <g id="text_13">
      <!-- 8 -->
      <defs>
       <path d="M 30.078125 34.625 
Q 23.484375 34.625 19.890625 30.9375 
Q 16.3125 27.25 16.3125 20.515625 
Q 16.3125 13.765625 19.9375 10.03125 
Q 23.578125 6.296875 30.078125 6.296875 
Q 36.71875 6.296875 40.296875 9.984375 
Q 43.890625 13.671875 43.890625 20.515625 
Q 43.890625 27.203125 40.25 30.90625 
Q 36.625 34.625 30.078125 34.625 
z
M 21.484375 38.71875 
Q 15.1875 40.328125 11.640625 44.71875 
Q 8.109375 49.125 8.109375 55.328125 
Q 8.109375 64.015625 14.015625 69.109375 
Q 19.921875 74.21875 30.078125 74.21875 
Q 40.28125 74.21875 46.1875 69.109375 
Q 52.09375 64.015625 52.09375 55.328125 
Q 52.09375 49.125 48.546875 44.71875 
Q 45.015625 40.328125 38.71875 38.71875 
Q 46.046875 37.109375 49.921875 32.21875 
Q 53.8125 27.34375 53.8125 19.578125 
Q 53.8125 9.71875 47.515625 4.140625 
Q 41.21875 -1.421875 30.078125 -1.421875 
Q 18.953125 -1.421875 12.671875 4.125 
Q 6.390625 9.671875 6.390625 19.484375 
Q 6.390625 27.296875 10.265625 32.203125 
Q 14.15625 37.109375 21.484375 38.71875 
z
M 17.921875 54.390625 
Q 17.921875 48.53125 21.046875 45.453125 
Q 24.171875 42.390625 30.078125 42.390625 
Q 36.03125 42.390625 39.15625 45.453125 
Q 42.28125 48.53125 42.28125 54.390625 
Q 42.28125 60.359375 39.171875 63.484375 
Q 36.078125 66.609375 30.078125 66.609375 
Q 24.171875 66.609375 21.046875 63.453125 
Q 17.921875 60.296875 17.921875 54.390625 
z
" id="DejaVuSansMono-56"/>
      </defs>
      <g transform="translate(16.230469 210.521314)scale(0.15 -0.15)">
       <use xlink:href="#DejaVuSansMono-56"/>
      </g>
     </g>
    </g>
    <g id="ytick_6">
     <g id="line2d_14">
      <g>
       <use style="stroke:#000000;stroke-width:0.8;" x="32.260937" xlink:href="#mf35cbf63ed" y="152.069915"/>
      </g>
     </g>
     <g id="text_14">
      <!-- 10 -->
      <g transform="translate(7.2 157.808587)scale(0.15 -0.15)">
       <use xlink:href="#DejaVuSansMono-49"/>
       <use x="60.205078" xlink:href="#DejaVuSansMono-48"/>
      </g>
     </g>
    </g>
    <g id="ytick_7">
     <g id="line2d_15">
      <g>
       <use style="stroke:#000000;stroke-width:0.8;" x="32.260937" xlink:href="#mf35cbf63ed" y="99.357187"/>
      </g>
     </g>
     <g id="text_15">
      <!-- 12 -->
      <g transform="translate(7.2 105.095859)scale(0.15 -0.15)">
       <use xlink:href="#DejaVuSansMono-49"/>
       <use x="60.205078" xlink:href="#DejaVuSansMono-50"/>
      </g>
     </g>
    </g>
    <g id="ytick_8">
     <g id="line2d_16">
      <g>
       <use style="stroke:#000000;stroke-width:0.8;" x="32.260937" xlink:href="#mf35cbf63ed" y="46.64446"/>
      </g>
     </g>
     <g id="text_16">
      <!-- 14 -->
      <g transform="translate(7.2 52.383132)scale(0.15 -0.15)">
       <use xlink:href="#DejaVuSansMono-49"/>
       <use x="60.205078" xlink:href="#DejaVuSansMono-52"/>
      </g>
     </g>
    </g>
   </g>
   <g id="patch_52">
    <path d="M 32.260937 461.757187 
L 32.260937 26.877187 
" style="fill:none;stroke:#000000;stroke-linecap:square;stroke-linejoin:miter;stroke-width:0.8;"/>
   </g>
   <g id="patch_53">
    <path d="M 478.660937 461.757187 
L 478.660937 26.877187 
" style="fill:none;stroke:#000000;stroke-linecap:square;stroke-linejoin:miter;stroke-width:0.8;"/>
   </g>
   <g id="patch_54">
    <path d="M 32.260938 461.757187 
L 478.660937 461.757187 
" style="fill:none;stroke:#000000;stroke-linecap:square;stroke-linejoin:miter;stroke-width:0.8;"/>
   </g>
   <g id="patch_55">
    <path d="M 32.260938 26.877187 
L 478.660937 26.877187 
" style="fill:none;stroke:#000000;stroke-linecap:square;stroke-linejoin:miter;stroke-width:0.8;"/>
   </g>
   <g id="text_17">
    <!-- 0,0 -->
    <defs>
     <path d="M 24.515625 14.796875 
L 36.8125 14.796875 
L 36.8125 4.6875 
L 27.203125 -14.015625 
L 19.671875 -14.015625 
L 24.515625 4.6875 
z
" id="DejaVuSansMono-44"/>
    </defs>
    <g style="fill:#e5ff80;" transform="translate(79.587962 393.456094)scale(0.15 -0.15)">
     <use xlink:href="#DejaVuSansMono-48"/>
     <use x="60.205078" xlink:href="#DejaVuSansMono-44"/>
     <use x="120.410156" xlink:href="#DejaVuSansMono-48"/>
    </g>
   </g>
   <g id="text_18">
    <!-- 0,1 -->
    <g transform="translate(79.587962 340.743366)scale(0.15 -0.15)">
     <use xlink:href="#DejaVuSansMono-48"/>
     <use x="60.205078" xlink:href="#DejaVuSansMono-44"/>
     <use x="120.410156" xlink:href="#DejaVuSansMono-49"/>
    </g>
   </g>
   <g id="text_19">
    <!-- 0,2 -->
    <g transform="translate(79.587962 288.030639)scale(0.15 -0.15)">
     <use xlink:href="#DejaVuSansMono-48"/>
     <use x="60.205078" xlink:href="#DejaVuSansMono-44"/>
     <use x="120.410156" xlink:href="#DejaVuSansMono-50"/>
    </g>
   </g>
   <g id="text_20">
    <!-- 0,3 -->
    <g transform="translate(79.587962 235.317912)scale(0.15 -0.15)">
     <use xlink:href="#DejaVuSansMono-48"/>
     <use x="60.205078" xlink:href="#DejaVuSansMono-44"/>
     <use x="120.410156" xlink:href="#DejaVuSansMono-51"/>
    </g>
   </g>
   <g id="text_21">
    <!-- 0,4 -->
    <g style="fill:#e5ff80;" transform="translate(79.587962 182.605185)scale(0.15 -0.15)">
     <use xlink:href="#DejaVuSansMono-48"/>
     <use x="60.205078" xlink:href="#DejaVuSansMono-44"/>
     <use x="120.410156" xlink:href="#DejaVuSansMono-52"/>
    </g>
   </g>
   <g id="text_22">
    <!-- 0,5 -->
    <g transform="translate(79.587962 129.892457)scale(0.15 -0.15)">
     <use xlink:href="#DejaVuSansMono-48"/>
     <use x="60.205078" xlink:href="#DejaVuSansMono-44"/>
     <use x="120.410156" xlink:href="#DejaVuSansMono-53"/>
    </g>
   </g>
   <g id="text_23">
    <!-- 0,6 -->
    <g transform="translate(79.587962 77.17973)scale(0.15 -0.15)">
     <use xlink:href="#DejaVuSansMono-48"/>
     <use x="60.205078" xlink:href="#DejaVuSansMono-44"/>
     <use x="120.410156" xlink:href="#DejaVuSansMono-54"/>
    </g>
   </g>
   <g id="text_24">
    <!-- 1,0 -->
    <g style="fill:#e5ff80;" transform="translate(133.697053 419.812457)scale(0.15 -0.15)">
     <use xlink:href="#DejaVuSansMono-49"/>
     <use x="60.205078" xlink:href="#DejaVuSansMono-44"/>
     <use x="120.410156" xlink:href="#DejaVuSansMono-48"/>
    </g>
   </g>
   <g id="text_25">
    <!-- 1,1 -->
    <g transform="translate(133.697053 367.09973)scale(0.15 -0.15)">
     <use xlink:href="#DejaVuSansMono-49"/>
     <use x="60.205078" xlink:href="#DejaVuSansMono-44"/>
     <use x="120.410156" xlink:href="#DejaVuSansMono-49"/>
    </g>
   </g>
   <g id="text_26">
    <!-- 1,2 -->
    <g transform="translate(133.697053 314.387003)scale(0.15 -0.15)">
     <use xlink:href="#DejaVuSansMono-49"/>
     <use x="60.205078" xlink:href="#DejaVuSansMono-44"/>
     <use x="120.410156" xlink:href="#DejaVuSansMono-50"/>
    </g>
   </g>
   <g id="text_27">
    <!-- 1,3 -->
    <g style="fill:#e5ff80;" transform="translate(133.697053 261.674276)scale(0.15 -0.15)">
     <use xlink:href="#DejaVuSansMono-49"/>
     <use x="60.205078" xlink:href="#DejaVuSansMono-44"/>
     <use x="120.410156" xlink:href="#DejaVuSansMono-51"/>
    </g>
   </g>
   <g id="text_28">
    <!-- 1,4 -->
    <g transform="translate(133.697053 208.961548)scale(0.15 -0.15)">
     <use xlink:href="#DejaVuSansMono-49"/>
     <use x="60.205078" xlink:href="#DejaVuSansMono-44"/>
     <use x="120.410156" xlink:href="#DejaVuSansMono-52"/>
    </g>
   </g>
   <g id="text_29">
    <!-- 1,5 -->
    <g transform="translate(133.697053 156.248821)scale(0.15 -0.15)">
     <use xlink:href="#DejaVuSansMono-49"/>
     <use x="60.205078" xlink:href="#DejaVuSansMono-44"/>
     <use x="120.410156" xlink:href="#DejaVuSansMono-53"/>
    </g>
   </g>
   <g id="text_30">
    <!-- 1,6 -->
    <g style="fill:#e5ff80;" transform="translate(133.697053 103.536094)scale(0.15 -0.15)">
     <use xlink:href="#DejaVuSansMono-49"/>
     <use x="60.205078" xlink:href="#DejaVuSansMono-44"/>
     <use x="120.410156" xlink:href="#DejaVuSansMono-54"/>
    </g>
   </g>
   <g id="text_31">
    <!-- 2,1 -->
    <g transform="translate(187.806143 393.456094)scale(0.15 -0.15)">
     <use xlink:href="#DejaVuSansMono-50"/>
     <use x="60.205078" xlink:href="#DejaVuSansMono-44"/>
     <use x="120.410156" xlink:href="#DejaVuSansMono-49"/>
    </g>
   </g>
   <g id="text_32">
    <!-- 2,2 -->
    <g transform="translate(187.806143 340.743366)scale(0.15 -0.15)">
     <use xlink:href="#DejaVuSansMono-50"/>
     <use x="60.205078" xlink:href="#DejaVuSansMono-44"/>
     <use x="120.410156" xlink:href="#DejaVuSansMono-50"/>
    </g>
   </g>
   <g id="text_33">
    <!-- 2,3 -->
    <g transform="translate(187.806143 288.030639)scale(0.15 -0.15)">
     <use xlink:href="#DejaVuSansMono-50"/>
     <use x="60.205078" xlink:href="#DejaVuSansMono-44"/>
     <use x="120.410156" xlink:href="#DejaVuSansMono-51"/>
    </g>
   </g>
   <g id="text_34">
    <!-- 2,4 -->
    <g transform="translate(187.806143 235.317912)scale(0.15 -0.15)">
     <use xlink:href="#DejaVuSansMono-50"/>
     <use x="60.205078" xlink:href="#DejaVuSansMono-44"/>
     <use x="120.410156" xlink:href="#DejaVuSansMono-52"/>
    </g>
   </g>
   <g id="text_35">
    <!-- 2,5 -->
    <g transform="translate(187.806143 182.605185)scale(0.15 -0.15)">
     <use xlink:href="#DejaVuSansMono-50"/>
     <use x="60.205078" xlink:href="#DejaVuSansMono-44"/>
     <use x="120.410156" xlink:href="#DejaVuSansMono-53"/>
    </g>
   </g>
   <g id="text_36">
    <!-- 2,6 -->
    <g transform="translate(187.806143 129.892457)scale(0.15 -0.15)">
     <use xlink:href="#DejaVuSansMono-50"/>
     <use x="60.205078" xlink:href="#DejaVuSansMono-44"/>
     <use x="120.410156" xlink:href="#DejaVuSansMono-54"/>
    </g>
   </g>
   <g id="text_37">
    <!-- 2,7 -->
    <g transform="translate(187.806143 77.17973)scale(0.15 -0.15)">
     <use xlink:href="#DejaVuSansMono-50"/>
     <use x="60.205078" xlink:href="#DejaVuSansMono-44"/>
     <use x="120.410156" xlink:href="#DejaVuSansMono-55"/>
    </g>
   </g>
   <g id="text_38">
    <!-- 3,1 -->
    <g transform="translate(241.915234 419.812457)scale(0.15 -0.15)">
     <use xlink:href="#DejaVuSansMono-51"/>
     <use x="60.205078" xlink:href="#DejaVuSansMono-44"/>
     <use x="120.410156" xlink:href="#DejaVuSansMono-49"/>
    </g>
   </g>
   <g id="text_39">
    <!-- 3,2 -->
    <g style="fill:#e5ff80;" transform="translate(241.915234 367.09973)scale(0.15 -0.15)">
     <use xlink:href="#DejaVuSansMono-51"/>
     <use x="60.205078" xlink:href="#DejaVuSansMono-44"/>
     <use x="120.410156" xlink:href="#DejaVuSansMono-50"/>
    </g>
   </g>
   <g id="text_40">
    <!-- 3,3 -->
    <g transform="translate(241.915234 314.387003)scale(0.15 -0.15)">
     <use xlink:href="#DejaVuSansMono-51"/>
     <use x="60.205078" xlink:href="#DejaVuSansMono-44"/>
     <use x="120.410156" xlink:href="#DejaVuSansMono-51"/>
    </g>
   </g>
   <g id="text_41">
    <!-- 3,4 -->
    <g transform="translate(241.915234 261.674276)scale(0.15 -0.15)">
     <use xlink:href="#DejaVuSansMono-51"/>
     <use x="60.205078" xlink:href="#DejaVuSansMono-44"/>
     <use x="120.410156" xlink:href="#DejaVuSansMono-52"/>
    </g>
   </g>
   <g id="text_42">
    <!-- 3,5 -->
    <g transform="translate(241.915234 208.961548)scale(0.15 -0.15)">
     <use xlink:href="#DejaVuSansMono-51"/>
     <use x="60.205078" xlink:href="#DejaVuSansMono-44"/>
     <use x="120.410156" xlink:href="#DejaVuSansMono-53"/>
    </g>
   </g>
   <g id="text_43">
    <!-- 3,6 -->
    <g transform="translate(241.915234 156.248821)scale(0.15 -0.15)">
     <use xlink:href="#DejaVuSansMono-51"/>
     <use x="60.205078" xlink:href="#DejaVuSansMono-44"/>
     <use x="120.410156" xlink:href="#DejaVuSansMono-54"/>
    </g>
   </g>
   <g id="text_44">
    <!-- 3,7 -->
    <g transform="translate(241.915234 103.536094)scale(0.15 -0.15)">
     <use xlink:href="#DejaVuSansMono-51"/>
     <use x="60.205078" xlink:href="#DejaVuSansMono-44"/>
     <use x="120.410156" xlink:href="#DejaVuSansMono-55"/>
    </g>
   </g>
   <g id="text_45">
    <!-- 4,2 -->
    <g transform="translate(296.024325 393.456094)scale(0.15 -0.15)">
     <use xlink:href="#DejaVuSansMono-52"/>
     <use x="60.205078" xlink:href="#DejaVuSansMono-44"/>
     <use x="120.410156" xlink:href="#DejaVuSansMono-50"/>
    </g>
   </g>
   <g id="text_46">
    <!-- 4,3 -->
    <g style="fill:#e5ff80;" transform="translate(296.024325 340.743366)scale(0.15 -0.15)">
     <use xlink:href="#DejaVuSansMono-52"/>
     <use x="60.205078" xlink:href="#DejaVuSansMono-44"/>
     <use x="120.410156" xlink:href="#DejaVuSansMono-51"/>
    </g>
   </g>
   <g id="text_47">
    <!-- 4,4 -->
    <g style="fill:#e5ff80;" transform="translate(296.024325 288.030639)scale(0.15 -0.15)">
     <use xlink:href="#DejaVuSansMono-52"/>
     <use x="60.205078" xlink:href="#DejaVuSansMono-44"/>
     <use x="120.410156" xlink:href="#DejaVuSansMono-52"/>
    </g>
   </g>
   <g id="text_48">
    <!-- 4,5 -->
    <g transform="translate(296.024325 235.317912)scale(0.15 -0.15)">
     <use xlink:href="#DejaVuSansMono-52"/>
     <use x="60.205078" xlink:href="#DejaVuSansMono-44"/>
     <use x="120.410156" xlink:href="#DejaVuSansMono-53"/>
    </g>
   </g>
   <g id="text_49">
    <!-- 4,6 -->
    <g transform="translate(296.024325 182.605185)scale(0.15 -0.15)">
     <use xlink:href="#DejaVuSansMono-52"/>
     <use x="60.205078" xlink:href="#DejaVuSansMono-44"/>
     <use x="120.410156" xlink:href="#DejaVuSansMono-54"/>
    </g>
   </g>
   <g id="text_50">
    <!-- 4,7 -->
    <g transform="translate(296.024325 129.892457)scale(0.15 -0.15)">
     <use xlink:href="#DejaVuSansMono-52"/>
     <use x="60.205078" xlink:href="#DejaVuSansMono-44"/>
     <use x="120.410156" xlink:href="#DejaVuSansMono-55"/>
    </g>
   </g>
   <g id="text_51">
    <!-- 4,8 -->
    <g transform="translate(296.024325 77.17973)scale(0.15 -0.15)">
     <use xlink:href="#DejaVuSansMono-52"/>
     <use x="60.205078" xlink:href="#DejaVuSansMono-44"/>
     <use x="120.410156" xlink:href="#DejaVuSansMono-56"/>
    </g>
   </g>
   <g id="text_52">
    <!-- 5,2 -->
    <g transform="translate(350.133416 419.812457)scale(0.15 -0.15)">
     <use xlink:href="#DejaVuSansMono-53"/>
     <use x="60.205078" xlink:href="#DejaVuSansMono-44"/>
     <use x="120.410156" xlink:href="#DejaVuSansMono-50"/>
    </g>
   </g>
   <g id="text_53">
    <!-- 5,3 -->
    <g transform="translate(350.133416 367.09973)scale(0.15 -0.15)">
     <use xlink:href="#DejaVuSansMono-53"/>
     <use x="60.205078" xlink:href="#DejaVuSansMono-44"/>
     <use x="120.410156" xlink:href="#DejaVuSansMono-51"/>
    </g>
   </g>
   <g id="text_54">
    <!-- 5,4 -->
    <g style="fill:#e5ff80;" transform="translate(350.133416 314.387003)scale(0.15 -0.15)">
     <use xlink:href="#DejaVuSansMono-53"/>
     <use x="60.205078" xlink:href="#DejaVuSansMono-44"/>
     <use x="120.410156" xlink:href="#DejaVuSansMono-52"/>
    </g>
   </g>
   <g id="text_55">
    <!-- 5,5 -->
    <g style="fill:#e5ff80;" transform="translate(350.133416 261.674276)scale(0.15 -0.15)">
     <use xlink:href="#DejaVuSansMono-53"/>
     <use x="60.205078" xlink:href="#DejaVuSansMono-44"/>
     <use x="120.410156" xlink:href="#DejaVuSansMono-53"/>
    </g>
   </g>
   <g id="text_56">
    <!-- 5,6 -->
    <g transform="translate(350.133416 208.961548)scale(0.15 -0.15)">
     <use xlink:href="#DejaVuSansMono-53"/>
     <use x="60.205078" xlink:href="#DejaVuSansMono-44"/>
     <use x="120.410156" xlink:href="#DejaVuSansMono-54"/>
    </g>
   </g>
   <g id="text_57">
    <!-- 5,7 -->
    <g transform="translate(350.133416 156.248821)scale(0.15 -0.15)">
     <use xlink:href="#DejaVuSansMono-53"/>
     <use x="60.205078" xlink:href="#DejaVuSansMono-44"/>
     <use x="120.410156" xlink:href="#DejaVuSansMono-55"/>
    </g>
   </g>
   <g id="text_58">
    <!-- 5,8 -->
    <g transform="translate(350.133416 103.536094)scale(0.15 -0.15)">
     <use xlink:href="#DejaVuSansMono-53"/>
     <use x="60.205078" xlink:href="#DejaVuSansMono-44"/>
     <use x="120.410156" xlink:href="#DejaVuSansMono-56"/>
    </g>
   </g>
   <g id="text_59">
    <!-- 6,3 -->
    <g style="fill:#e5ff80;" transform="translate(404.242507 393.456094)scale(0.15 -0.15)">
     <use xlink:href="#DejaVuSansMono-54"/>
     <use x="60.205078" xlink:href="#DejaVuSansMono-44"/>
     <use x="120.410156" xlink:href="#DejaVuSansMono-51"/>
    </g>
   </g>
   <g id="text_60">
    <!-- 6,4 -->
    <g transform="translate(404.242507 340.743366)scale(0.15 -0.15)">
     <use xlink:href="#DejaVuSansMono-54"/>
     <use x="60.205078" xlink:href="#DejaVuSansMono-44"/>
     <use x="120.410156" xlink:href="#DejaVuSansMono-52"/>
    </g>
   </g>
   <g id="text_61">
    <!-- 6,5 -->
    <g transform="translate(404.242507 288.030639)scale(0.15 -0.15)">
     <use xlink:href="#DejaVuSansMono-54"/>
     <use x="60.205078" xlink:href="#DejaVuSansMono-44"/>
     <use x="120.410156" xlink:href="#DejaVuSansMono-53"/>
    </g>
   </g>
   <g id="text_62">
    <!-- 6,6 -->
    <g transform="translate(404.242507 235.317912)scale(0.15 -0.15)">
     <use xlink:href="#DejaVuSansMono-54"/>
     <use x="60.205078" xlink:href="#DejaVuSansMono-44"/>
     <use x="120.410156" xlink:href="#DejaVuSansMono-54"/>
    </g>
   </g>
   <g id="text_63">
    <!-- 6,7 -->
    <g transform="translate(404.242507 182.605185)scale(0.15 -0.15)">
     <use xlink:href="#DejaVuSansMono-54"/>
     <use x="60.205078" xlink:href="#DejaVuSansMono-44"/>
     <use x="120.410156" xlink:href="#DejaVuSansMono-55"/>
    </g>
   </g>
   <g id="text_64">
    <!-- 6,8 -->
    <g transform="translate(404.242507 129.892457)scale(0.15 -0.15)">
     <use xlink:href="#DejaVuSansMono-54"/>
     <use x="60.205078" xlink:href="#DejaVuSansMono-44"/>
     <use x="120.410156" xlink:href="#DejaVuSansMono-56"/>
    </g>
   </g>
   <g id="text_65">
    <!-- 6,9 -->
    <defs>
     <path d="M 29.109375 32.328125 
Q 35.40625 32.328125 38.984375 36.859375 
Q 42.578125 41.40625 42.578125 49.421875 
Q 42.578125 57.421875 38.984375 61.953125 
Q 35.40625 66.5 29.109375 66.5 
Q 22.5625 66.5 19.234375 62.171875 
Q 15.921875 57.859375 15.921875 49.421875 
Q 15.921875 40.921875 19.21875 36.625 
Q 22.515625 32.328125 29.109375 32.328125 
z
M 11.53125 1.515625 
L 11.53125 10.59375 
Q 14.59375 8.796875 18.0625 7.84375 
Q 21.53125 6.890625 25.296875 6.890625 
Q 34.671875 6.890625 39.46875 13.9375 
Q 44.28125 21 44.28125 34.71875 
Q 42 29.828125 37.84375 27.21875 
Q 33.6875 24.609375 28.328125 24.609375 
Q 17.78125 24.609375 11.984375 31.09375 
Q 6.203125 37.59375 6.203125 49.515625 
Q 6.203125 61.28125 12.125 67.75 
Q 18.0625 74.21875 28.90625 74.21875 
Q 41.609375 74.21875 47.515625 65.078125 
Q 53.421875 55.953125 53.421875 36.375 
Q 53.421875 17.96875 46.3125 8.265625 
Q 39.203125 -1.421875 25.6875 -1.421875 
Q 22.125 -1.421875 18.5 -0.65625 
Q 14.890625 0.09375 11.53125 1.515625 
z
" id="DejaVuSansMono-57"/>
    </defs>
    <g style="fill:#e5ff80;" transform="translate(404.242507 77.17973)scale(0.15 -0.15)">
     <use xlink:href="#DejaVuSansMono-54"/>
     <use x="60.205078" xlink:href="#DejaVuSansMono-44"/>
     <use x="120.410156" xlink:href="#DejaVuSansMono-57"/>
    </g>
   </g>
   <g id="text_66">
    <!-- Address -&gt; Hexagon -->
    <defs>
     <path d="M 30.078125 64.203125 
L 19.671875 26.90625 
L 40.484375 26.90625 
z
M 24.125 72.90625 
L 36.078125 72.90625 
L 58.40625 0 
L 48.1875 0 
L 42.828125 19 
L 17.28125 19 
L 12.015625 0 
L 1.8125 0 
z
" id="DejaVuSansMono-65"/>
     <path d="M 41.890625 47.703125 
L 41.890625 75.984375 
L 50.875 75.984375 
L 50.875 0 
L 41.890625 0 
L 41.890625 6.890625 
Q 39.65625 2.828125 35.90625 0.703125 
Q 32.171875 -1.421875 27.296875 -1.421875 
Q 17.390625 -1.421875 11.6875 6.265625 
Q 6 13.96875 6 27.484375 
Q 6 40.828125 11.71875 48.40625 
Q 17.4375 56 27.296875 56 
Q 32.234375 56 35.984375 53.875 
Q 39.75 51.765625 41.890625 47.703125 
z
M 15.484375 27.296875 
Q 15.484375 16.84375 18.796875 11.515625 
Q 22.125 6.203125 28.609375 6.203125 
Q 35.109375 6.203125 38.5 11.5625 
Q 41.890625 16.9375 41.890625 27.296875 
Q 41.890625 37.703125 38.5 43.046875 
Q 35.109375 48.390625 28.609375 48.390625 
Q 22.125 48.390625 18.796875 43.0625 
Q 15.484375 37.75 15.484375 27.296875 
z
" id="DejaVuSansMono-100"/>
     <path d="M 56.390625 43.40625 
Q 53.515625 45.65625 50.53125 46.671875 
Q 47.5625 47.703125 44 47.703125 
Q 35.59375 47.703125 31.140625 42.421875 
Q 26.703125 37.15625 26.703125 27.203125 
L 26.703125 0 
L 17.671875 0 
L 17.671875 54.6875 
L 26.703125 54.6875 
L 26.703125 44 
Q 28.953125 49.8125 33.609375 52.90625 
Q 38.28125 56 44.671875 56 
Q 48 56 50.875 55.171875 
Q 53.765625 54.34375 56.390625 52.59375 
z
" id="DejaVuSansMono-114"/>
     <path d="M 54.296875 29.59375 
L 54.296875 25.203125 
L 15.375 25.203125 
L 15.375 24.90625 
Q 15.375 15.96875 20.03125 11.078125 
Q 24.703125 6.203125 33.203125 6.203125 
Q 37.5 6.203125 42.1875 7.5625 
Q 46.875 8.9375 52.203125 11.71875 
L 52.203125 2.78125 
Q 47.078125 0.6875 42.3125 -0.359375 
Q 37.546875 -1.421875 33.109375 -1.421875 
Q 20.359375 -1.421875 13.171875 6.21875 
Q 6 13.875 6 27.296875 
Q 6 40.375 13.03125 48.1875 
Q 20.0625 56 31.78125 56 
Q 42.234375 56 48.265625 48.921875 
Q 54.296875 41.84375 54.296875 29.59375 
z
M 45.3125 32.234375 
Q 45.125 40.140625 41.578125 44.265625 
Q 38.03125 48.390625 31.390625 48.390625 
Q 24.90625 48.390625 20.703125 44.09375 
Q 16.5 39.796875 15.71875 32.171875 
z
" id="DejaVuSansMono-101"/>
     <path d="M 47.515625 52.78125 
L 47.515625 44 
Q 43.65625 46.234375 39.75 47.359375 
Q 35.84375 48.484375 31.78125 48.484375 
Q 25.6875 48.484375 22.671875 46.5 
Q 19.671875 44.53125 19.671875 40.484375 
Q 19.671875 36.8125 21.921875 35 
Q 24.171875 33.203125 33.109375 31.5 
L 36.71875 30.8125 
Q 43.40625 29.546875 46.84375 25.734375 
Q 50.296875 21.921875 50.296875 15.828125 
Q 50.296875 7.71875 44.53125 3.140625 
Q 38.765625 -1.421875 28.515625 -1.421875 
Q 24.46875 -1.421875 20.015625 -0.5625 
Q 15.578125 0.296875 10.40625 2 
L 10.40625 11.28125 
Q 15.4375 8.6875 20.015625 7.390625 
Q 24.609375 6.109375 28.71875 6.109375 
Q 34.671875 6.109375 37.9375 8.515625 
Q 41.21875 10.9375 41.21875 15.28125 
Q 41.21875 21.53125 29.25 23.921875 
L 28.859375 24.03125 
L 25.484375 24.703125 
Q 17.71875 26.21875 14.15625 29.8125 
Q 10.59375 33.40625 10.59375 39.59375 
Q 10.59375 47.46875 15.90625 51.734375 
Q 21.234375 56 31.109375 56 
Q 35.5 56 39.546875 55.1875 
Q 43.609375 54.390625 47.515625 52.78125 
z
" id="DejaVuSansMono-115"/>
     <path id="DejaVuSansMono-32"/>
     <path d="M 17.390625 31.390625 
L 42.828125 31.390625 
L 42.828125 23.390625 
L 17.390625 23.390625 
z
" id="DejaVuSansMono-45"/>
     <path d="M 4.296875 46.921875 
L 4.296875 55.8125 
L 55.90625 35.40625 
L 55.90625 27.296875 
L 4.296875 6.890625 
L 4.296875 15.828125 
L 45.796875 31.296875 
z
" id="DejaVuSansMono-62"/>
     <path d="M 6.6875 72.90625 
L 16.609375 72.90625 
L 16.609375 43.015625 
L 43.609375 43.015625 
L 43.609375 72.90625 
L 53.515625 72.90625 
L 53.515625 0 
L 43.609375 0 
L 43.609375 34.71875 
L 16.609375 34.71875 
L 16.609375 0 
L 6.6875 0 
z
" id="DejaVuSansMono-72"/>
     <path d="M 54.59375 54.6875 
L 35.015625 28.515625 
L 56.5 0 
L 46.09375 0 
L 30.078125 21.921875 
L 14.109375 0 
L 3.71875 0 
L 25.203125 28.515625 
L 5.609375 54.6875 
L 15.578125 54.6875 
L 30.078125 34.90625 
L 44.484375 54.6875 
z
" id="DejaVuSansMono-120"/>
     <path d="M 34.28125 27.484375 
L 31.296875 27.484375 
Q 23.4375 27.484375 19.453125 24.71875 
Q 15.484375 21.96875 15.484375 16.5 
Q 15.484375 11.578125 18.453125 8.84375 
Q 21.4375 6.109375 26.703125 6.109375 
Q 34.125 6.109375 38.375 11.25 
Q 42.625 16.40625 42.671875 25.484375 
L 42.671875 27.484375 
z
M 51.703125 31.203125 
L 51.703125 0 
L 42.671875 0 
L 42.671875 8.109375 
Q 39.796875 3.21875 35.421875 0.890625 
Q 31.0625 -1.421875 24.8125 -1.421875 
Q 16.453125 -1.421875 11.46875 3.296875 
Q 6.5 8.015625 6.5 15.921875 
Q 6.5 25.046875 12.625 29.78125 
Q 18.75 34.515625 30.609375 34.515625 
L 42.671875 34.515625 
L 42.671875 35.9375 
Q 42.625 42.484375 39.34375 45.4375 
Q 36.078125 48.390625 28.90625 48.390625 
Q 24.3125 48.390625 19.625 47.0625 
Q 14.9375 45.75 10.5 43.21875 
L 10.5 52.203125 
Q 15.484375 54.109375 20.046875 55.046875 
Q 24.609375 56 28.90625 56 
Q 35.6875 56 40.5 54 
Q 45.3125 52 48.296875 48 
Q 50.140625 45.5625 50.921875 41.96875 
Q 51.703125 38.375 51.703125 31.203125 
z
" id="DejaVuSansMono-97"/>
     <path d="M 41.890625 27.78125 
Q 41.890625 37.890625 38.59375 43.140625 
Q 35.296875 48.390625 29 48.390625 
Q 22.40625 48.390625 18.9375 43.140625 
Q 15.484375 37.890625 15.484375 27.78125 
Q 15.484375 17.671875 18.96875 12.375 
Q 22.46875 7.078125 29.109375 7.078125 
Q 35.296875 7.078125 38.59375 12.390625 
Q 41.890625 17.71875 41.890625 27.78125 
z
M 50.875 3.515625 
Q 50.875 -8.796875 45.0625 -15.140625 
Q 39.265625 -21.484375 27.984375 -21.484375 
Q 24.265625 -21.484375 20.203125 -20.796875 
Q 16.15625 -20.125 12.109375 -18.796875 
L 12.109375 -9.90625 
Q 16.890625 -12.15625 20.796875 -13.234375 
Q 24.703125 -14.3125 27.984375 -14.3125 
Q 35.25 -14.3125 38.5625 -10.34375 
Q 41.890625 -6.390625 41.890625 2.203125 
L 41.890625 2.59375 
L 41.890625 8.6875 
Q 39.75 4.109375 36.03125 1.859375 
Q 32.328125 -0.390625 27 -0.390625 
Q 17.4375 -0.390625 11.71875 7.265625 
Q 6 14.9375 6 27.78125 
Q 6 40.671875 11.71875 48.328125 
Q 17.4375 56 27 56 
Q 32.28125 56 35.9375 53.90625 
Q 39.59375 51.8125 41.890625 47.40625 
L 41.890625 54.5 
L 50.875 54.5 
z
" id="DejaVuSansMono-103"/>
     <path d="M 30.078125 48.390625 
Q 23.25 48.390625 19.734375 43.0625 
Q 16.21875 37.75 16.21875 27.296875 
Q 16.21875 16.890625 19.734375 11.546875 
Q 23.25 6.203125 30.078125 6.203125 
Q 36.96875 6.203125 40.484375 11.546875 
Q 44 16.890625 44 27.296875 
Q 44 37.75 40.484375 43.0625 
Q 36.96875 48.390625 30.078125 48.390625 
z
M 30.078125 56 
Q 41.453125 56 47.484375 48.625 
Q 53.515625 41.265625 53.515625 27.296875 
Q 53.515625 13.28125 47.5 5.921875 
Q 41.5 -1.421875 30.078125 -1.421875 
Q 18.703125 -1.421875 12.6875 5.921875 
Q 6.6875 13.28125 6.6875 27.296875 
Q 6.6875 41.265625 12.6875 48.625 
Q 18.703125 56 30.078125 56 
z
" id="DejaVuSansMono-111"/>
     <path d="M 51.3125 33.890625 
L 51.3125 0 
L 42.28125 0 
L 42.28125 33.890625 
Q 42.28125 41.265625 39.6875 44.71875 
Q 37.109375 48.1875 31.59375 48.1875 
Q 25.296875 48.1875 21.890625 43.71875 
Q 18.5 39.265625 18.5 30.90625 
L 18.5 0 
L 9.515625 0 
L 9.515625 54.6875 
L 18.5 54.6875 
L 18.5 46.484375 
Q 20.90625 51.171875 25 53.578125 
Q 29.109375 56 34.71875 56 
Q 43.0625 56 47.1875 50.5 
Q 51.3125 45.015625 51.3125 33.890625 
z
" id="DejaVuSansMono-110"/>
    </defs>
    <g transform="translate(157.931875 20.877187)scale(0.18 -0.18)">
     <use xlink:href="#DejaVuSansMono-65"/>
     <use x="60.205078" xlink:href="#DejaVuSansMono-100"/>
     <use x="120.410156" xlink:href="#DejaVuSansMono-100"/>
     <use x="180.615234" xlink:href="#DejaVuSansMono-114"/>
     <use x="240.820312" xlink:href="#DejaVuSansMono-101"/>
     <use x="301.025391" xlink:href="#DejaVuSansMono-115"/>
     <use x="361.230469" xlink:href="#DejaVuSansMono-115"/>
     <use x="421.435547" xlink:href="#DejaVuSansMono-32"/>
     <use x="481.640625" xlink:href="#DejaVuSansMono-45"/>
     <use x="541.845703" xlink:href="#DejaVuSansMono-62"/>
     <use x="602.050781" xlink:href="#DejaVuSansMono-32"/>
     <use x="662.255859" xlink:href="#DejaVuSansMono-72"/>
     <use x="722.460938" xlink:href="#DejaVuSansMono-101"/>
     <use x="782.666016" xlink:href="#DejaVuSansMono-120"/>
     <use x="842.871094" xlink:href="#DejaVuSansMono-97"/>
     <use x="903.076172" xlink:href="#DejaVuSansMono-103"/>
     <use x="963.28125" xlink:href="#DejaVuSansMono-111"/>
     <use x="1023.486328" xlink:href="#DejaVuSansMono-110"/>
    </g>
   </g>
  </g>
 </g>
 <defs>
  <clipPath id="p8e0e1ba0ef">
   <rect height="434.88" width="446.4" x="32.260937" y="26.877187"/>
  </clipPath>
 </defs>
</svg>
