<?xml version="1.0" encoding="utf-8" standalone="no"?>
<!DOCTYPE svg PUBLIC "-//W3C//DTD SVG 1.1//EN"
  "http://www.w3.org/Graphics/SVG/1.1/DTD/svg11.dtd">
<!-- Created with matplotlib (https://matplotlib.org/) -->
<svg height="253.465pt" version="1.1" viewBox="0 0 365.432031 253.465" width="365.432031pt" xmlns="http://www.w3.org/2000/svg" xmlns:xlink="http://www.w3.org/1999/xlink">
 <defs>
  <style type="text/css">
*{stroke-linecap:butt;stroke-linejoin:round;}
  </style>
 </defs>
 <g id="figure_1">
  <g id="patch_1">
   <path d="M 0 253.465 
L 365.432031 253.465 
L 365.432031 0 
L 0 0 
z
" style="fill:none;"/>
  </g>
  <g id="axes_1">
   <g id="patch_2">
    <path d="M 23.432031 224.64 
L 358.232031 224.64 
L 358.232031 7.2 
L 23.432031 7.2 
z
" style="fill:#ffffff;"/>
   </g>
   <g id="matplotlib.axis_1">
    <g id="xtick_1">
     <g id="line2d_1">
      <path clip-path="url(#p8f80a5883d)" d="M 69.086577 224.64 
L 69.086577 7.2 
" style="fill:none;stroke:#b0b0b0;stroke-linecap:square;stroke-width:0.8;"/>
     </g>
     <g id="line2d_2">
      <defs>
       <path d="M 0 0 
L 0 3.5 
" id="m57b6536579" style="stroke:#000000;stroke-width:0.8;"/>
      </defs>
      <g>
       <use style="stroke:#000000;stroke-width:0.8;" x="69.086577" xlink:href="#m57b6536579" y="224.64"/>
      </g>
     </g>
     <g id="text_1">
      <!-- 0.0 -->
      <defs>
       <path d="M 30.765625 71.75 
C 15.59375 71.75 7.640625 58.71875 7.640625 35.328125 
C 7.640625 11.84375 15.59375 -1.171875 30.765625 -1.171875 
C 45.953125 -1.171875 53.890625 11.84375 53.890625 35.328125 
C 53.890625 58.71875 45.953125 71.75 30.765625 71.75 
z
M 30.765625 64.828125 
C 34.828125 64.828125 37.890625 63.390625 40.15625 60.25 
L 18.5625 16.875 
C 17.328125 21.4375 16.765625 27.484375 16.765625 35.328125 
C 16.765625 56.25 22.109375 64.828125 30.765625 64.828125 
z
M 44.828125 35.328125 
C 44.828125 14.40625 39.546875 5.796875 30.765625 5.796875 
C 26.828125 5.796875 23.75 7.171875 21.484375 10.3125 
L 42.96875 53.84375 
C 44.203125 49.28125 44.828125 43.234375 44.828125 35.328125 
z
" id="FiraCode-Regular-48"/>
       <path d="M 21.6875 7.890625 
C 21.6875 2.828125 25.59375 -1.171875 30.671875 -1.171875 
C 35.84375 -1.171875 39.75 2.828125 39.75 7.890625 
C 39.75 12.875 35.84375 16.875 30.671875 16.875 
C 25.59375 16.875 21.6875 12.875 21.6875 7.890625 
z
" id="FiraCode-Regular-46"/>
      </defs>
      <g transform="translate(55.23853 243.0025)scale(0.15 -0.15)">
       <use xlink:href="#FiraCode-Regular-48"/>
       <use x="61.538452" xlink:href="#FiraCode-Regular-46"/>
       <use x="123.076904" xlink:href="#FiraCode-Regular-48"/>
      </g>
     </g>
    </g>
    <g id="xtick_2">
     <g id="line2d_3">
      <path clip-path="url(#p8f80a5883d)" d="M 129.959304 224.64 
L 129.959304 7.2 
" style="fill:none;stroke:#b0b0b0;stroke-linecap:square;stroke-width:0.8;"/>
     </g>
     <g id="line2d_4">
      <g>
       <use style="stroke:#000000;stroke-width:0.8;" x="129.959304" xlink:href="#m57b6536579" y="224.64"/>
      </g>
     </g>
     <g id="text_2">
      <!-- 0.5 -->
      <defs>
       <path d="M 49.953125 70.609375 
L 12.5625 70.609375 
L 12.5625 35.328125 
L 19.484375 35.328125 
C 23.59375 36.875 26.3125 37.6875 30.515625 37.6875 
C 37.59375 37.6875 43.234375 34 43.234375 22.609375 
C 43.234375 11.640625 37.75 5.953125 28.46875 5.953125 
C 22.359375 5.953125 17.484375 8.046875 13.234375 12.46875 
L 7.890625 7.328125 
C 13.390625 2 19.84375 -1.171875 28.359375 -1.171875 
C 42.921875 -1.171875 52.25 8.25 52.25 22.359375 
C 52.25 36.46875 44.515625 44.515625 32.96875 44.515625 
C 28.71875 44.515625 25.078125 43.796875 20.765625 41.484375 
L 20.765625 63.75 
L 48.671875 63.75 
z
" id="FiraCode-Regular-53"/>
      </defs>
      <g transform="translate(116.111257 243.0025)scale(0.15 -0.15)">
       <use xlink:href="#FiraCode-Regular-48"/>
       <use x="61.538452" xlink:href="#FiraCode-Regular-46"/>
       <use x="123.076904" xlink:href="#FiraCode-Regular-53"/>
      </g>
     </g>
    </g>
    <g id="xtick_3">
     <g id="line2d_5">
      <path clip-path="url(#p8f80a5883d)" d="M 190.832031 224.64 
L 190.832031 7.2 
" style="fill:none;stroke:#b0b0b0;stroke-linecap:square;stroke-width:0.8;"/>
     </g>
     <g id="line2d_6">
      <g>
       <use style="stroke:#000000;stroke-width:0.8;" x="190.832031" xlink:href="#m57b6536579" y="224.64"/>
      </g>
     </g>
     <g id="text_3">
      <!-- 1.0 -->
      <defs>
       <path d="M 53.078125 7.03125 
L 38.3125 7.03125 
L 38.3125 70.609375 
L 30.765625 70.609375 
L 9.75 57.59375 
L 13.484375 51.4375 
L 29.6875 61.28125 
L 29.6875 7.03125 
L 12.3125 7.03125 
L 12.3125 0 
L 53.078125 0 
z
" id="FiraCode-Regular-49"/>
      </defs>
      <g transform="translate(176.983984 243.0025)scale(0.15 -0.15)">
       <use xlink:href="#FiraCode-Regular-49"/>
       <use x="61.538452" xlink:href="#FiraCode-Regular-46"/>
       <use x="123.076904" xlink:href="#FiraCode-Regular-48"/>
      </g>
     </g>
    </g>
    <g id="xtick_4">
     <g id="line2d_7">
      <path clip-path="url(#p8f80a5883d)" d="M 251.704759 224.64 
L 251.704759 7.2 
" style="fill:none;stroke:#b0b0b0;stroke-linecap:square;stroke-width:0.8;"/>
     </g>
     <g id="line2d_8">
      <g>
       <use style="stroke:#000000;stroke-width:0.8;" x="251.704759" xlink:href="#m57b6536579" y="224.64"/>
      </g>
     </g>
     <g id="text_4">
      <!-- 1.5 -->
      <g transform="translate(237.856712 243.0025)scale(0.15 -0.15)">
       <use xlink:href="#FiraCode-Regular-49"/>
       <use x="61.538452" xlink:href="#FiraCode-Regular-46"/>
       <use x="123.076904" xlink:href="#FiraCode-Regular-53"/>
      </g>
     </g>
    </g>
    <g id="xtick_5">
     <g id="line2d_9">
      <path clip-path="url(#p8f80a5883d)" d="M 312.577486 224.64 
L 312.577486 7.2 
" style="fill:none;stroke:#b0b0b0;stroke-linecap:square;stroke-width:0.8;"/>
     </g>
     <g id="line2d_10">
      <g>
       <use style="stroke:#000000;stroke-width:0.8;" x="312.577486" xlink:href="#m57b6536579" y="224.64"/>
      </g>
     </g>
     <g id="text_5">
      <!-- 2.0 -->
      <defs>
       <path d="M 27.640625 71.75 
C 18.109375 71.75 11.640625 68.46875 6.046875 61.640625 
L 12 57.03125 
C 16.46875 62.3125 20.25 64.5625 27.234375 64.5625 
C 35.125 64.5625 39.84375 59.6875 39.84375 51.75 
C 39.84375 40.25 34.109375 32.5625 7.484375 7.03125 
L 7.484375 0 
L 49.484375 0 
L 50.5625 7.328125 
L 17.28125 7.328125 
C 40.5625 28.5625 48.921875 39.078125 48.921875 52.046875 
C 48.921875 63.28125 40.96875 71.75 27.640625 71.75 
z
" id="FiraCode-Regular-50"/>
      </defs>
      <g transform="translate(298.729439 243.0025)scale(0.15 -0.15)">
       <use xlink:href="#FiraCode-Regular-50"/>
       <use x="61.538452" xlink:href="#FiraCode-Regular-46"/>
       <use x="123.076904" xlink:href="#FiraCode-Regular-48"/>
      </g>
     </g>
    </g>
    <g id="xtick_6">
     <g id="line2d_11">
      <path clip-path="url(#p8f80a5883d)" d="M 38.650213 224.64 
L 38.650213 7.2 
" style="fill:none;stroke:#b0b0b0;stroke-linecap:square;stroke-width:0.8;"/>
     </g>
     <g id="line2d_12">
      <defs>
       <path d="M 0 0 
L 0 2 
" id="m4f4da68afc" style="stroke:#000000;stroke-width:0.6;"/>
      </defs>
      <g>
       <use style="stroke:#000000;stroke-width:0.6;" x="38.650213" xlink:href="#m4f4da68afc" y="224.64"/>
      </g>
     </g>
    </g>
    <g id="xtick_7">
     <g id="line2d_13">
      <path clip-path="url(#p8f80a5883d)" d="M 99.52294 224.64 
L 99.52294 7.2 
" style="fill:none;stroke:#b0b0b0;stroke-linecap:square;stroke-width:0.8;"/>
     </g>
     <g id="line2d_14">
      <g>
       <use style="stroke:#000000;stroke-width:0.6;" x="99.52294" xlink:href="#m4f4da68afc" y="224.64"/>
      </g>
     </g>
    </g>
    <g id="xtick_8">
     <g id="line2d_15">
      <path clip-path="url(#p8f80a5883d)" d="M 160.395668 224.64 
L 160.395668 7.2 
" style="fill:none;stroke:#b0b0b0;stroke-linecap:square;stroke-width:0.8;"/>
     </g>
     <g id="line2d_16">
      <g>
       <use style="stroke:#000000;stroke-width:0.6;" x="160.395668" xlink:href="#m4f4da68afc" y="224.64"/>
      </g>
     </g>
    </g>
    <g id="xtick_9">
     <g id="line2d_17">
      <path clip-path="url(#p8f80a5883d)" d="M 221.268395 224.64 
L 221.268395 7.2 
" style="fill:none;stroke:#b0b0b0;stroke-linecap:square;stroke-width:0.8;"/>
     </g>
     <g id="line2d_18">
      <g>
       <use style="stroke:#000000;stroke-width:0.6;" x="221.268395" xlink:href="#m4f4da68afc" y="224.64"/>
      </g>
     </g>
    </g>
    <g id="xtick_10">
     <g id="line2d_19">
      <path clip-path="url(#p8f80a5883d)" d="M 282.141122 224.64 
L 282.141122 7.2 
" style="fill:none;stroke:#b0b0b0;stroke-linecap:square;stroke-width:0.8;"/>
     </g>
     <g id="line2d_20">
      <g>
       <use style="stroke:#000000;stroke-width:0.6;" x="282.141122" xlink:href="#m4f4da68afc" y="224.64"/>
      </g>
     </g>
    </g>
    <g id="xtick_11">
     <g id="line2d_21">
      <path clip-path="url(#p8f80a5883d)" d="M 343.013849 224.64 
L 343.013849 7.2 
" style="fill:none;stroke:#b0b0b0;stroke-linecap:square;stroke-width:0.8;"/>
     </g>
     <g id="line2d_22">
      <g>
       <use style="stroke:#000000;stroke-width:0.6;" x="343.013849" xlink:href="#m4f4da68afc" y="224.64"/>
      </g>
     </g>
    </g>
   </g>
   <g id="matplotlib.axis_2">
    <g id="ytick_1">
     <g id="line2d_23">
      <path clip-path="url(#p8f80a5883d)" d="M 23.432031 214.756364 
L 358.232031 214.756364 
" style="fill:none;stroke:#b0b0b0;stroke-linecap:square;stroke-width:0.8;"/>
     </g>
     <g id="line2d_24">
      <defs>
       <path d="M 0 0 
L -3.5 0 
" id="m7b80eb560a" style="stroke:#000000;stroke-width:0.8;"/>
      </defs>
      <g>
       <use style="stroke:#000000;stroke-width:0.8;" x="23.432031" xlink:href="#m7b80eb560a" y="214.756364"/>
      </g>
     </g>
     <g id="text_6">
      <!-- 0 -->
      <g transform="translate(7.2 220.437614)scale(0.15 -0.15)">
       <use xlink:href="#FiraCode-Regular-48"/>
      </g>
     </g>
    </g>
    <g id="ytick_2">
     <g id="line2d_25">
      <path clip-path="url(#p8f80a5883d)" d="M 23.432031 165.338182 
L 358.232031 165.338182 
" style="fill:none;stroke:#b0b0b0;stroke-linecap:square;stroke-width:0.8;"/>
     </g>
     <g id="line2d_26">
      <g>
       <use style="stroke:#000000;stroke-width:0.8;" x="23.432031" xlink:href="#m7b80eb560a" y="165.338182"/>
      </g>
     </g>
     <g id="text_7">
      <!-- 1 -->
      <g transform="translate(7.2 171.019432)scale(0.15 -0.15)">
       <use xlink:href="#FiraCode-Regular-49"/>
      </g>
     </g>
    </g>
    <g id="ytick_3">
     <g id="line2d_27">
      <path clip-path="url(#p8f80a5883d)" d="M 23.432031 115.92 
L 358.232031 115.92 
" style="fill:none;stroke:#b0b0b0;stroke-linecap:square;stroke-width:0.8;"/>
     </g>
     <g id="line2d_28">
      <g>
       <use style="stroke:#000000;stroke-width:0.8;" x="23.432031" xlink:href="#m7b80eb560a" y="115.92"/>
      </g>
     </g>
     <g id="text_8">
      <!-- 2 -->
      <g transform="translate(7.2 121.60125)scale(0.15 -0.15)">
       <use xlink:href="#FiraCode-Regular-50"/>
      </g>
     </g>
    </g>
    <g id="ytick_4">
     <g id="line2d_29">
      <path clip-path="url(#p8f80a5883d)" d="M 23.432031 66.501818 
L 358.232031 66.501818 
" style="fill:none;stroke:#b0b0b0;stroke-linecap:square;stroke-width:0.8;"/>
     </g>
     <g id="line2d_30">
      <g>
       <use style="stroke:#000000;stroke-width:0.8;" x="23.432031" xlink:href="#m7b80eb560a" y="66.501818"/>
      </g>
     </g>
     <g id="text_9">
      <!-- 3 -->
      <defs>
       <path d="M 27.546875 71.75 
C 20.359375 71.75 13.484375 69.28125 7.484375 63.640625 
L 12.25 58.359375 
C 16.921875 62.71875 21.078125 64.875 27.234375 64.875 
C 34.609375 64.875 40.5625 60.671875 40.5625 52.875 
C 40.5625 44.46875 33.953125 40.5625 27.125 40.5625 
L 22.96875 40.5625 
L 21.890625 33.75 
L 27.84375 33.75 
C 36.203125 33.75 42.46875 30.46875 42.46875 20.359375 
C 42.46875 11.484375 36.609375 5.953125 26.765625 5.953125 
C 20.96875 5.953125 15.078125 8.25 11.078125 12.96875 
L 5.28125 8.25 
C 10.671875 1.6875 19.078125 -1.171875 26.96875 -1.171875 
C 41.59375 -1.171875 51.484375 8.109375 51.484375 20.359375 
C 51.484375 31.234375 43.6875 36.96875 35.4375 37.640625 
C 42.921875 39.03125 49.234375 45.53125 49.234375 54.109375 
C 49.234375 63.6875 40.875 71.75 27.546875 71.75 
z
" id="FiraCode-Regular-51"/>
      </defs>
      <g transform="translate(7.2 72.183068)scale(0.15 -0.15)">
       <use xlink:href="#FiraCode-Regular-51"/>
      </g>
     </g>
    </g>
    <g id="ytick_5">
     <g id="line2d_31">
      <path clip-path="url(#p8f80a5883d)" d="M 23.432031 17.083636 
L 358.232031 17.083636 
" style="fill:none;stroke:#b0b0b0;stroke-linecap:square;stroke-width:0.8;"/>
     </g>
     <g id="line2d_32">
      <g>
       <use style="stroke:#000000;stroke-width:0.8;" x="23.432031" xlink:href="#m7b80eb560a" y="17.083636"/>
      </g>
     </g>
     <g id="text_10">
      <!-- 4 -->
      <defs>
       <path d="M 45.078125 44.109375 
L 37.890625 44.109375 
L 36.765625 24.046875 
L 16.515625 24.046875 
L 35.28125 68.71875 
L 28.109375 71.75 
L 7.390625 23.4375 
L 7.390625 17.171875 
L 36.71875 17.171875 
L 36.765625 0 
L 45.078125 0 
L 45.078125 17.171875 
L 54.203125 17.171875 
L 54.203125 24.046875 
L 45.078125 24.046875 
z
" id="FiraCode-Regular-52"/>
      </defs>
      <g transform="translate(7.2 22.764886)scale(0.15 -0.15)">
       <use xlink:href="#FiraCode-Regular-52"/>
      </g>
     </g>
    </g>
    <g id="ytick_6">
     <g id="line2d_33">
      <path clip-path="url(#p8f80a5883d)" d="M 23.432031 190.047273 
L 358.232031 190.047273 
" style="fill:none;stroke:#b0b0b0;stroke-linecap:square;stroke-width:0.8;"/>
     </g>
     <g id="line2d_34">
      <defs>
       <path d="M 0 0 
L -2 0 
" id="m06fde95ab7" style="stroke:#000000;stroke-width:0.6;"/>
      </defs>
      <g>
       <use style="stroke:#000000;stroke-width:0.6;" x="23.432031" xlink:href="#m06fde95ab7" y="190.047273"/>
      </g>
     </g>
    </g>
    <g id="ytick_7">
     <g id="line2d_35">
      <path clip-path="url(#p8f80a5883d)" d="M 23.432031 140.629091 
L 358.232031 140.629091 
" style="fill:none;stroke:#b0b0b0;stroke-linecap:square;stroke-width:0.8;"/>
     </g>
     <g id="line2d_36">
      <g>
       <use style="stroke:#000000;stroke-width:0.6;" x="23.432031" xlink:href="#m06fde95ab7" y="140.629091"/>
      </g>
     </g>
    </g>
    <g id="ytick_8">
     <g id="line2d_37">
      <path clip-path="url(#p8f80a5883d)" d="M 23.432031 91.210909 
L 358.232031 91.210909 
" style="fill:none;stroke:#b0b0b0;stroke-linecap:square;stroke-width:0.8;"/>
     </g>
     <g id="line2d_38">
      <g>
       <use style="stroke:#000000;stroke-width:0.6;" x="23.432031" xlink:href="#m06fde95ab7" y="91.210909"/>
      </g>
     </g>
    </g>
    <g id="ytick_9">
     <g id="line2d_39">
      <path clip-path="url(#p8f80a5883d)" d="M 23.432031 41.792727 
L 358.232031 41.792727 
" style="fill:none;stroke:#b0b0b0;stroke-linecap:square;stroke-width:0.8;"/>
     </g>
     <g id="line2d_40">
      <g>
       <use style="stroke:#000000;stroke-width:0.6;" x="23.432031" xlink:href="#m06fde95ab7" y="41.792727"/>
      </g>
     </g>
    </g>
   </g>
   <g id="line2d_41">
    <path clip-path="url(#p8f80a5883d)" d="M 221.268395 165.338182 
L 160.395668 115.92 
L 99.52294 115.92 
L 38.650213 165.338182 
L 99.52294 214.756364 
L 160.395668 214.756364 
L 221.268395 165.338182 
" style="fill:none;stroke:#99baff;stroke-linecap:square;stroke-width:6;"/>
   </g>
   <g id="line2d_42">
    <path clip-path="url(#p8f80a5883d)" d="M 343.013849 115.92 
L 282.141122 66.501818 
L 221.268395 66.501818 
L 160.395668 115.92 
L 221.268395 165.338182 
L 282.141122 165.338182 
L 343.013849 115.92 
" style="fill:none;stroke:#99baff;stroke-linecap:square;stroke-width:6;"/>
   </g>
   <g id="line2d_43">
    <path clip-path="url(#p8f80a5883d)" d="M 221.268395 66.501818 
L 160.395668 17.083636 
L 99.52294 17.083636 
L 38.650213 66.501818 
L 99.52294 115.92 
L 160.395668 115.92 
L 221.268395 66.501818 
" style="fill:none;stroke:#99baff;stroke-linecap:square;stroke-width:6;"/>
   </g>
   <g id="line2d_44">
    <path clip-path="url(#p8f80a5883d)" d="M 129.959304 165.338182 
L 129.959304 66.501818 
" style="fill:none;stroke:#ff0000;stroke-linecap:square;stroke-width:1.5;"/>
   </g>
   <g id="line2d_45">
    <path clip-path="url(#p8f80a5883d)" d="M 129.959304 165.338182 
L 251.704759 165.338182 
" style="fill:none;stroke:#008000;stroke-linecap:square;stroke-width:1.5;"/>
   </g>
   <g id="line2d_46">
    <path clip-path="url(#p8f80a5883d)" d="M 251.704759 165.338182 
L 251.704759 115.92 
" style="fill:none;stroke:#0000ff;stroke-linecap:square;stroke-width:1.5;"/>
   </g>
   <g id="patch_3">
    <path d="M 23.432031 224.64 
L 23.432031 7.2 
" style="fill:none;stroke:#000000;stroke-linecap:square;stroke-linejoin:miter;stroke-width:0.8;"/>
   </g>
   <g id="patch_4">
    <path d="M 358.232031 224.64 
L 358.232031 7.2 
" style="fill:none;stroke:#000000;stroke-linecap:square;stroke-linejoin:miter;stroke-width:0.8;"/>
   </g>
   <g id="patch_5">
    <path d="M 23.432031 224.64 
L 358.232031 224.64 
" style="fill:none;stroke:#000000;stroke-linecap:square;stroke-linejoin:miter;stroke-width:0.8;"/>
   </g>
   <g id="patch_6">
    <path d="M 23.432031 7.2 
L 358.232031 7.2 
" style="fill:none;stroke:#000000;stroke-linecap:square;stroke-linejoin:miter;stroke-width:0.8;"/>
   </g>
   <g id="text_11">
    <!-- h -->
    <defs>
     <path d="M 23.390625 77.6875 
L 7.1875 76.109375 
L 7.1875 0 
L 23.390625 0 
L 23.390625 37.6875 
C 26.46875 41.796875 29.484375 44.3125 32.921875 44.3125 
C 36.921875 44.3125 38.15625 42.046875 38.15625 35.484375 
L 38.15625 0 
L 54.359375 0 
L 54.359375 40 
C 54.359375 50.3125 49.078125 56.25 39.390625 56.25 
C 33.328125 56.25 27.953125 53.890625 23.390625 49.078125 
z
" id="FiraCode-Bold-104"/>
    </defs>
    <g style="fill:#ff0000;" transform="translate(114.64 110.978182)scale(0.15 -0.15)">
     <use xlink:href="#FiraCode-Bold-104"/>
    </g>
   </g>
   <g id="text_12">
    <!-- w -->
    <defs>
     <path d="M 53.4375 0 
L 61.1875 54.46875 
L 46.875 54.46875 
L 43.234375 10.109375 
L 38.109375 47.59375 
L 24.46875 47.59375 
L 18.71875 10.109375 
L 15.1875 54.46875 
L 0.359375 54.46875 
L 8.40625 0 
L 26 0 
L 30.875 36.609375 
L 35.546875 0 
z
" id="FiraCode-Bold-119"/>
    </defs>
    <g style="fill:#008000;" transform="translate(186.216016 180.163636)scale(0.15 -0.15)">
     <use xlink:href="#FiraCode-Bold-119"/>
    </g>
   </g>
   <g id="text_13">
    <!-- h/2 -->
    <defs>
     <path d="M 15.59375 -11.484375 
L 58.609375 78 
L 46.046875 83.796875 
L 2.921875 -5.6875 
z
" id="FiraCode-Bold-47"/>
     <path d="M 28.3125 72.875 
C 16.875 72.875 9.390625 68.109375 4.046875 60.71875 
L 14 53.234375 
C 17.6875 58.25 21.390625 60.40625 26.765625 60.40625 
C 32.875 60.40625 36.3125 56.828125 36.3125 51.078125 
C 36.3125 42.609375 28.875 34.109375 5.484375 11.484375 
L 5.484375 0 
L 52.71875 0 
L 54.46875 12.359375 
L 24.109375 12.359375 
C 45.6875 31.6875 52.828125 40.96875 52.828125 52.515625 
C 52.828125 63.390625 44.515625 72.875 28.3125 72.875 
z
" id="FiraCode-Bold-50"/>
    </defs>
    <g style="fill:#0000ff;" transform="translate(257.792031 140.629091)scale(0.15 -0.15)">
     <use xlink:href="#FiraCode-Bold-104"/>
     <use x="61.538452" xlink:href="#FiraCode-Bold-47"/>
     <use x="123.076904" xlink:href="#FiraCode-Bold-50"/>
    </g>
   </g>
  </g>
 </g>
 <defs>
  <clipPath id="p8f80a5883d">
   <rect height="217.44" width="334.8" x="23.432031" y="7.2"/>
  </clipPath>
 </defs>
</svg>
